  0
SECTION
  2
HEADER
  9
$ANGBASE
  50
0.0
  9
$ANGDIR
  70
1
  9
$MEASUREMENT
  70
1
  0
ENDSEC
  0
SECTION
  2
TABLES
  0
TABLE
  2
LTYPE
  70
4
  0
LTYPE
  5
40F
  2
CONTINUOUS
  70
0
  3
Solid line
  72
65
  73
0
  40
0.0
  0
LTYPE
  5
410
  2
DASHDOT
 70
0
  3
Dash Dot ____ _ ____ _
 72
65
 73
4
 40
2.0
 49
1.25
 49
-0.25
 49
0.25
 49
-0.25
  0
LTYPE
  5
411
  2
DASHED
 70
0
  3
Dashed __ __ __ __ __
 72
65
 73
2
 40
0.75
 49
0.5
 49
-0.25
  0
LTYPE
  5
43B
  2
DOTTED
 70
0
  3
Dotted .  .  .  .
 72
65
 73
2
 40
0.2
 49
0.0
 49
-0.2
  0
ENDTAB
  0
TABLE
  2
STYLE
  70
4
  0
STYLE
  2
KICAD
  70
0
  40
0
  41
1
  42
1
  50
0
  71
0
  3
isocp.shx
  0
STYLE
  2
KICADB
  70
0
  40
0
  41
1
  42
1
  50
0
  71
0
  3
isocp.shx
  0
STYLE
  2
KICADI
  70
0
  40
0
  41
1
  42
1
  50
15
  71
0
  3
isocp.shx
  0
STYLE
  2
KICADBI
  70
0
  40
0
  41
1
  42
1
  50
15
  71
0
  3
isocp.shx
  0
ENDTAB
  0
TABLE
  2
LAYER
  70
1
  0
LAYER
  2
BLACK
  70
0
  62
7
  6
CONTINUOUS
  0
ENDTAB
  0
ENDSEC
  0
SECTION
  2
ENTITIES
0
LINE
8
BLACK
6
CONTINUOUS
10
-369.136
20
321.762
11
-369.136
21
321.762
0
LINE
8
BLACK
6
CONTINUOUS
10
-369.136
20
321.762
11
-369.133
21
321.762
0
LINE
8
BLACK
6
CONTINUOUS
10
-369.133
20
321.762
11
-369.128
21
321.761
0
LINE
8
BLACK
6
CONTINUOUS
10
-369.128
20
321.761
11
-369.124
21
321.758
0
LINE
8
BLACK
6
CONTINUOUS
10
-369.124
20
321.758
11
-369.12
21
321.755
0
LINE
8
BLACK
6
CONTINUOUS
10
-369.12
20
321.755
11
-369.117
21
321.751
0
LINE
8
BLACK
6
CONTINUOUS
10
-369.117
20
321.751
11
-369.114
21
321.747
0
LINE
8
BLACK
6
CONTINUOUS
10
-369.114
20
321.747
11
-369.113
21
321.742
0
LINE
8
BLACK
6
CONTINUOUS
10
-369.113
20
321.742
11
-369.112
21
321.738
0
LINE
8
BLACK
6
CONTINUOUS
10
-369.112
20
321.738
11
-369.113
21
321.736
0
LINE
8
BLACK
6
CONTINUOUS
10
-369.113
20
321.736
11
-369.113
21
304.239
0
LINE
8
BLACK
6
CONTINUOUS
10
-369.113
20
304.239
11
-369.112
21
304.238
0
LINE
8
BLACK
6
CONTINUOUS
10
-369.112
20
304.238
11
-369.113
21
304.236
0
LINE
8
BLACK
6
CONTINUOUS
10
-369.113
20
304.236
11
-369.113
21
304.236
0
LINE
8
BLACK
6
CONTINUOUS
10
-369.113
20
304.236
11
-369.113
21
304.233
0
LINE
8
BLACK
6
CONTINUOUS
10
-369.113
20
304.233
11
-369.114
21
304.228
0
LINE
8
BLACK
6
CONTINUOUS
10
-369.114
20
304.228
11
-369.117
21
304.224
0
LINE
8
BLACK
6
CONTINUOUS
10
-369.117
20
304.224
11
-369.12
21
304.22
0
LINE
8
BLACK
6
CONTINUOUS
10
-369.12
20
304.22
11
-369.124
21
304.217
0
LINE
8
BLACK
6
CONTINUOUS
10
-369.124
20
304.217
11
-369.128
21
304.214
0
LINE
8
BLACK
6
CONTINUOUS
10
-369.128
20
304.214
11
-369.133
21
304.213
0
LINE
8
BLACK
6
CONTINUOUS
10
-369.133
20
304.213
11
-369.137
21
304.212
0
LINE
8
BLACK
6
CONTINUOUS
10
-369.137
20
304.212
11
-369.139
21
304.212
0
LINE
8
BLACK
6
CONTINUOUS
10
-369.139
20
304.212
11
-383.336
21
304.212
0
LINE
8
BLACK
6
CONTINUOUS
10
-383.336
20
304.212
11
-383.337
21
304.212
0
LINE
8
BLACK
6
CONTINUOUS
10
-383.337
20
304.212
11
-383.342
21
304.213
0
LINE
8
BLACK
6
CONTINUOUS
10
-383.342
20
304.213
11
-383.347
21
304.214
0
LINE
8
BLACK
6
CONTINUOUS
10
-383.347
20
304.214
11
-383.351
21
304.217
0
LINE
8
BLACK
6
CONTINUOUS
10
-383.351
20
304.217
11
-383.355
21
304.22
0
LINE
8
BLACK
6
CONTINUOUS
10
-383.355
20
304.22
11
-383.358
21
304.224
0
LINE
8
BLACK
6
CONTINUOUS
10
-383.358
20
304.224
11
-383.361
21
304.228
0
LINE
8
BLACK
6
CONTINUOUS
10
-383.361
20
304.228
11
-383.362
21
304.233
0
LINE
8
BLACK
6
CONTINUOUS
10
-383.362
20
304.233
11
-383.363
21
304.238
0
LINE
8
BLACK
6
CONTINUOUS
10
-383.363
20
304.238
11
-383.362
21
304.239
0
LINE
8
BLACK
6
CONTINUOUS
10
-383.362
20
304.239
11
-383.362
21
321.736
0
LINE
8
BLACK
6
CONTINUOUS
10
-383.362
20
321.736
11
-383.363
21
321.738
0
LINE
8
BLACK
6
CONTINUOUS
10
-383.363
20
321.738
11
-383.362
21
321.742
0
LINE
8
BLACK
6
CONTINUOUS
10
-383.362
20
321.742
11
-383.361
21
321.747
0
LINE
8
BLACK
6
CONTINUOUS
10
-383.361
20
321.747
11
-383.358
21
321.751
0
LINE
8
BLACK
6
CONTINUOUS
10
-383.358
20
321.751
11
-383.355
21
321.755
0
LINE
8
BLACK
6
CONTINUOUS
10
-383.355
20
321.755
11
-383.351
21
321.758
0
LINE
8
BLACK
6
CONTINUOUS
10
-383.351
20
321.758
11
-383.347
21
321.761
0
LINE
8
BLACK
6
CONTINUOUS
10
-383.347
20
321.761
11
-383.342
21
321.762
0
LINE
8
BLACK
6
CONTINUOUS
10
-383.342
20
321.762
11
-383.339
21
321.762
0
LINE
8
BLACK
6
CONTINUOUS
10
-383.339
20
321.762
11
-383.339
21
321.762
0
LINE
8
BLACK
6
CONTINUOUS
10
-383.339
20
321.762
11
-383.337
21
321.763
0
LINE
8
BLACK
6
CONTINUOUS
10
-383.337
20
321.763
11
-383.336
21
321.762
0
LINE
8
BLACK
6
CONTINUOUS
10
-383.336
20
321.762
11
-369.139
21
321.762
0
LINE
8
BLACK
6
CONTINUOUS
10
-369.139
20
321.762
11
-369.137
21
321.763
0
LINE
8
BLACK
6
CONTINUOUS
10
-369.137
20
321.763
11
-369.136
21
321.762
0
LINE
8
BLACK
6
CONTINUOUS
10
-383.312
20
321.712
11
-383.312
21
304.262
0
LINE
8
BLACK
6
CONTINUOUS
10
-383.312
20
304.262
11
-369.162
21
304.262
0
LINE
8
BLACK
6
CONTINUOUS
10
-369.162
20
304.262
11
-369.162
21
321.712
0
LINE
8
BLACK
6
CONTINUOUS
10
-369.162
20
321.712
11
-383.312
21
321.712
0
LINE
8
BLACK
6
CONTINUOUS
10
-428.813
20
229.395
11
-428.626
21
229.847
0
LINE
8
BLACK
6
CONTINUOUS
10
-428.626
20
229.847
11
-428.354
21
230.254
0
LINE
8
BLACK
6
CONTINUOUS
10
-428.354
20
230.254
11
-428.008
21
230.6
0
LINE
8
BLACK
6
CONTINUOUS
10
-428.008
20
230.6
11
-427.601
21
230.872
0
LINE
8
BLACK
6
CONTINUOUS
10
-427.601
20
230.872
11
-427.15
21
231.059
0
LINE
8
BLACK
6
CONTINUOUS
10
-427.15
20
231.059
11
-426.67
21
231.154
0
LINE
8
BLACK
6
CONTINUOUS
10
-426.67
20
231.154
11
-426.181
21
231.154
0
LINE
8
BLACK
6
CONTINUOUS
10
-426.181
20
231.154
11
-425.701
21
231.059
0
LINE
8
BLACK
6
CONTINUOUS
10
-425.701
20
231.059
11
-425.249
21
230.872
0
LINE
8
BLACK
6
CONTINUOUS
10
-425.249
20
230.872
11
-424.843
21
230.6
0
LINE
8
BLACK
6
CONTINUOUS
10
-424.843
20
230.6
11
-424.497
21
230.254
0
LINE
8
BLACK
6
CONTINUOUS
10
-424.497
20
230.254
11
-424.225
21
229.847
0
LINE
8
BLACK
6
CONTINUOUS
10
-424.225
20
229.847
11
-424.038
21
229.395
0
LINE
8
BLACK
6
CONTINUOUS
10
-424.038
20
229.395
11
-423.942
21
228.916
0
LINE
8
BLACK
6
CONTINUOUS
10
-423.942
20
228.916
11
-423.942
21
228.427
0
LINE
8
BLACK
6
CONTINUOUS
10
-423.942
20
228.427
11
-424.038
21
227.947
0
LINE
8
BLACK
6
CONTINUOUS
10
-424.038
20
227.947
11
-424.225
21
227.495
0
LINE
8
BLACK
6
CONTINUOUS
10
-424.225
20
227.495
11
-424.497
21
227.088
0
LINE
8
BLACK
6
CONTINUOUS
10
-424.497
20
227.088
11
-424.843
21
226.742
0
LINE
8
BLACK
6
CONTINUOUS
10
-424.843
20
226.742
11
-425.249
21
226.471
0
LINE
8
BLACK
6
CONTINUOUS
10
-425.249
20
226.471
11
-425.701
21
226.284
0
LINE
8
BLACK
6
CONTINUOUS
10
-425.701
20
226.284
11
-426.181
21
226.188
0
LINE
8
BLACK
6
CONTINUOUS
10
-426.181
20
226.188
11
-426.67
21
226.188
0
LINE
8
BLACK
6
CONTINUOUS
10
-426.67
20
226.188
11
-427.15
21
226.284
0
LINE
8
BLACK
6
CONTINUOUS
10
-427.15
20
226.284
11
-427.601
21
226.471
0
LINE
8
BLACK
6
CONTINUOUS
10
-427.601
20
226.471
11
-428.008
21
226.742
0
LINE
8
BLACK
6
CONTINUOUS
10
-428.008
20
226.742
11
-428.354
21
227.088
0
LINE
8
BLACK
6
CONTINUOUS
10
-428.354
20
227.088
11
-428.626
21
227.495
0
LINE
8
BLACK
6
CONTINUOUS
10
-428.626
20
227.495
11
-428.813
21
227.947
0
LINE
8
BLACK
6
CONTINUOUS
10
-428.813
20
227.947
11
-428.908
21
228.427
0
LINE
8
BLACK
6
CONTINUOUS
10
-428.908
20
228.427
11
-428.908
21
228.916
0
LINE
8
BLACK
6
CONTINUOUS
10
-428.908
20
228.916
11
-428.813
21
229.395
0
LINE
8
BLACK
6
CONTINUOUS
10
-428.746
20
227.967
11
-428.564
21
227.528
0
LINE
8
BLACK
6
CONTINUOUS
10
-428.564
20
227.528
11
-428.3
21
227.133
0
LINE
8
BLACK
6
CONTINUOUS
10
-428.3
20
227.133
11
-427.964
21
226.797
0
LINE
8
BLACK
6
CONTINUOUS
10
-427.964
20
226.797
11
-427.568
21
226.532
0
LINE
8
BLACK
6
CONTINUOUS
10
-427.568
20
226.532
11
-427.129
21
226.351
0
LINE
8
BLACK
6
CONTINUOUS
10
-427.129
20
226.351
11
-426.663
21
226.258
0
LINE
8
BLACK
6
CONTINUOUS
10
-426.663
20
226.258
11
-426.188
21
226.258
0
LINE
8
BLACK
6
CONTINUOUS
10
-426.188
20
226.258
11
-425.721
21
226.351
0
LINE
8
BLACK
6
CONTINUOUS
10
-425.721
20
226.351
11
-425.282
21
226.532
0
LINE
8
BLACK
6
CONTINUOUS
10
-425.282
20
226.532
11
-424.887
21
226.797
0
LINE
8
BLACK
6
CONTINUOUS
10
-424.887
20
226.797
11
-424.551
21
227.133
0
LINE
8
BLACK
6
CONTINUOUS
10
-424.551
20
227.133
11
-424.287
21
227.528
0
LINE
8
BLACK
6
CONTINUOUS
10
-424.287
20
227.528
11
-424.105
21
227.967
0
LINE
8
BLACK
6
CONTINUOUS
10
-424.105
20
227.967
11
-424.012
21
228.433
0
LINE
8
BLACK
6
CONTINUOUS
10
-424.012
20
228.433
11
-424.012
21
228.909
0
LINE
8
BLACK
6
CONTINUOUS
10
-424.012
20
228.909
11
-424.105
21
229.375
0
LINE
8
BLACK
6
CONTINUOUS
10
-424.105
20
229.375
11
-424.287
21
229.814
0
LINE
8
BLACK
6
CONTINUOUS
10
-424.287
20
229.814
11
-424.551
21
230.21
0
LINE
8
BLACK
6
CONTINUOUS
10
-424.551
20
230.21
11
-424.887
21
230.546
0
LINE
8
BLACK
6
CONTINUOUS
10
-424.887
20
230.546
11
-425.282
21
230.81
0
LINE
8
BLACK
6
CONTINUOUS
10
-425.282
20
230.81
11
-425.721
21
230.992
0
LINE
8
BLACK
6
CONTINUOUS
10
-425.721
20
230.992
11
-426.188
21
231.084
0
LINE
8
BLACK
6
CONTINUOUS
10
-426.188
20
231.084
11
-426.663
21
231.084
0
LINE
8
BLACK
6
CONTINUOUS
10
-426.663
20
231.084
11
-427.129
21
230.992
0
LINE
8
BLACK
6
CONTINUOUS
10
-427.129
20
230.992
11
-427.568
21
230.81
0
LINE
8
BLACK
6
CONTINUOUS
10
-427.568
20
230.81
11
-427.964
21
230.546
0
LINE
8
BLACK
6
CONTINUOUS
10
-427.964
20
230.546
11
-428.3
21
230.21
0
LINE
8
BLACK
6
CONTINUOUS
10
-428.3
20
230.21
11
-428.564
21
229.814
0
LINE
8
BLACK
6
CONTINUOUS
10
-428.564
20
229.814
11
-428.746
21
229.375
0
LINE
8
BLACK
6
CONTINUOUS
10
-428.746
20
229.375
11
-428.839
21
228.909
0
LINE
8
BLACK
6
CONTINUOUS
10
-428.839
20
228.909
11
-428.839
21
228.433
0
LINE
8
BLACK
6
CONTINUOUS
10
-428.839
20
228.433
11
-428.746
21
227.967
0
LINE
8
BLACK
6
CONTINUOUS
10
-631.292
20
232.372
11
-631.104
21
232.824
0
LINE
8
BLACK
6
CONTINUOUS
10
-631.104
20
232.824
11
-630.833
21
233.231
0
LINE
8
BLACK
6
CONTINUOUS
10
-630.833
20
233.231
11
-630.487
21
233.577
0
LINE
8
BLACK
6
CONTINUOUS
10
-630.487
20
233.577
11
-630.08
21
233.848
0
LINE
8
BLACK
6
CONTINUOUS
10
-630.08
20
233.848
11
-629.628
21
234.036
0
LINE
8
BLACK
6
CONTINUOUS
10
-629.628
20
234.036
11
-629.149
21
234.131
0
LINE
8
BLACK
6
CONTINUOUS
10
-629.149
20
234.131
11
-628.659
21
234.131
0
LINE
8
BLACK
6
CONTINUOUS
10
-628.659
20
234.131
11
-628.18
21
234.036
0
LINE
8
BLACK
6
CONTINUOUS
10
-628.18
20
234.036
11
-627.728
21
233.848
0
LINE
8
BLACK
6
CONTINUOUS
10
-627.728
20
233.848
11
-627.321
21
233.577
0
LINE
8
BLACK
6
CONTINUOUS
10
-627.321
20
233.577
11
-626.975
21
233.231
0
LINE
8
BLACK
6
CONTINUOUS
10
-626.975
20
233.231
11
-626.704
21
232.824
0
LINE
8
BLACK
6
CONTINUOUS
10
-626.704
20
232.824
11
-626.516
21
232.372
0
LINE
8
BLACK
6
CONTINUOUS
10
-626.516
20
232.372
11
-626.421
21
231.893
0
LINE
8
BLACK
6
CONTINUOUS
10
-626.421
20
231.893
11
-626.421
21
231.403
0
LINE
8
BLACK
6
CONTINUOUS
10
-626.421
20
231.403
11
-626.516
21
230.924
0
LINE
8
BLACK
6
CONTINUOUS
10
-626.516
20
230.924
11
-626.704
21
230.472
0
LINE
8
BLACK
6
CONTINUOUS
10
-626.704
20
230.472
11
-626.975
21
230.065
0
LINE
8
BLACK
6
CONTINUOUS
10
-626.975
20
230.065
11
-627.321
21
229.719
0
LINE
8
BLACK
6
CONTINUOUS
10
-627.321
20
229.719
11
-627.728
21
229.448
0
LINE
8
BLACK
6
CONTINUOUS
10
-627.728
20
229.448
11
-628.18
21
229.26
0
LINE
8
BLACK
6
CONTINUOUS
10
-628.18
20
229.26
11
-628.659
21
229.165
0
LINE
8
BLACK
6
CONTINUOUS
10
-628.659
20
229.165
11
-629.149
21
229.165
0
LINE
8
BLACK
6
CONTINUOUS
10
-629.149
20
229.165
11
-629.628
21
229.26
0
LINE
8
BLACK
6
CONTINUOUS
10
-629.628
20
229.26
11
-630.08
21
229.448
0
LINE
8
BLACK
6
CONTINUOUS
10
-630.08
20
229.448
11
-630.487
21
229.719
0
LINE
8
BLACK
6
CONTINUOUS
10
-630.487
20
229.719
11
-630.833
21
230.065
0
LINE
8
BLACK
6
CONTINUOUS
10
-630.833
20
230.065
11
-631.104
21
230.472
0
LINE
8
BLACK
6
CONTINUOUS
10
-631.104
20
230.472
11
-631.292
21
230.924
0
LINE
8
BLACK
6
CONTINUOUS
10
-631.292
20
230.924
11
-631.387
21
231.403
0
LINE
8
BLACK
6
CONTINUOUS
10
-631.387
20
231.403
11
-631.387
21
231.893
0
LINE
8
BLACK
6
CONTINUOUS
10
-631.387
20
231.893
11
-631.292
21
232.372
0
LINE
8
BLACK
6
CONTINUOUS
10
-631.225
20
230.944
11
-631.043
21
230.505
0
LINE
8
BLACK
6
CONTINUOUS
10
-631.043
20
230.505
11
-630.779
21
230.11
0
LINE
8
BLACK
6
CONTINUOUS
10
-630.779
20
230.11
11
-630.442
21
229.773
0
LINE
8
BLACK
6
CONTINUOUS
10
-630.442
20
229.773
11
-630.047
21
229.509
0
LINE
8
BLACK
6
CONTINUOUS
10
-630.047
20
229.509
11
-629.608
21
229.327
0
LINE
8
BLACK
6
CONTINUOUS
10
-629.608
20
229.327
11
-629.142
21
229.235
0
LINE
8
BLACK
6
CONTINUOUS
10
-629.142
20
229.235
11
-628.666
21
229.235
0
LINE
8
BLACK
6
CONTINUOUS
10
-628.666
20
229.235
11
-628.2
21
229.327
0
LINE
8
BLACK
6
CONTINUOUS
10
-628.2
20
229.327
11
-627.761
21
229.509
0
LINE
8
BLACK
6
CONTINUOUS
10
-627.761
20
229.509
11
-627.366
21
229.773
0
LINE
8
BLACK
6
CONTINUOUS
10
-627.366
20
229.773
11
-627.029
21
230.11
0
LINE
8
BLACK
6
CONTINUOUS
10
-627.029
20
230.11
11
-626.765
21
230.505
0
LINE
8
BLACK
6
CONTINUOUS
10
-626.765
20
230.505
11
-626.583
21
230.944
0
LINE
8
BLACK
6
CONTINUOUS
10
-626.583
20
230.944
11
-626.491
21
231.41
0
LINE
8
BLACK
6
CONTINUOUS
10
-626.491
20
231.41
11
-626.491
21
231.886
0
LINE
8
BLACK
6
CONTINUOUS
10
-626.491
20
231.886
11
-626.583
21
232.352
0
LINE
8
BLACK
6
CONTINUOUS
10
-626.583
20
232.352
11
-626.765
21
232.791
0
LINE
8
BLACK
6
CONTINUOUS
10
-626.765
20
232.791
11
-627.029
21
233.186
0
LINE
8
BLACK
6
CONTINUOUS
10
-627.029
20
233.186
11
-627.366
21
233.523
0
LINE
8
BLACK
6
CONTINUOUS
10
-627.366
20
233.523
11
-627.761
21
233.787
0
LINE
8
BLACK
6
CONTINUOUS
10
-627.761
20
233.787
11
-628.2
21
233.969
0
LINE
8
BLACK
6
CONTINUOUS
10
-628.2
20
233.969
11
-628.666
21
234.061
0
LINE
8
BLACK
6
CONTINUOUS
10
-628.666
20
234.061
11
-629.142
21
234.061
0
LINE
8
BLACK
6
CONTINUOUS
10
-629.142
20
234.061
11
-629.608
21
233.969
0
LINE
8
BLACK
6
CONTINUOUS
10
-629.608
20
233.969
11
-630.047
21
233.787
0
LINE
8
BLACK
6
CONTINUOUS
10
-630.047
20
233.787
11
-630.442
21
233.523
0
LINE
8
BLACK
6
CONTINUOUS
10
-630.442
20
233.523
11
-630.779
21
233.186
0
LINE
8
BLACK
6
CONTINUOUS
10
-630.779
20
233.186
11
-631.043
21
232.791
0
LINE
8
BLACK
6
CONTINUOUS
10
-631.043
20
232.791
11
-631.225
21
232.352
0
LINE
8
BLACK
6
CONTINUOUS
10
-631.225
20
232.352
11
-631.317
21
231.886
0
LINE
8
BLACK
6
CONTINUOUS
10
-631.317
20
231.886
11
-631.317
21
231.41
0
LINE
8
BLACK
6
CONTINUOUS
10
-631.317
20
231.41
11
-631.225
21
230.944
0
LINE
8
BLACK
6
CONTINUOUS
10
-531.216
20
273.012
11
-531.028
21
273.464
0
LINE
8
BLACK
6
CONTINUOUS
10
-531.028
20
273.464
11
-530.757
21
273.871
0
LINE
8
BLACK
6
CONTINUOUS
10
-530.757
20
273.871
11
-530.411
21
274.217
0
LINE
8
BLACK
6
CONTINUOUS
10
-530.411
20
274.217
11
-530.004
21
274.488
0
LINE
8
BLACK
6
CONTINUOUS
10
-530.004
20
274.488
11
-529.552
21
274.676
0
LINE
8
BLACK
6
CONTINUOUS
10
-529.552
20
274.676
11
-529.073
21
274.771
0
LINE
8
BLACK
6
CONTINUOUS
10
-529.073
20
274.771
11
-528.583
21
274.771
0
LINE
8
BLACK
6
CONTINUOUS
10
-528.583
20
274.771
11
-528.104
21
274.676
0
LINE
8
BLACK
6
CONTINUOUS
10
-528.104
20
274.676
11
-527.652
21
274.488
0
LINE
8
BLACK
6
CONTINUOUS
10
-527.652
20
274.488
11
-527.245
21
274.217
0
LINE
8
BLACK
6
CONTINUOUS
10
-527.245
20
274.217
11
-526.899
21
273.871
0
LINE
8
BLACK
6
CONTINUOUS
10
-526.899
20
273.871
11
-526.628
21
273.464
0
LINE
8
BLACK
6
CONTINUOUS
10
-526.628
20
273.464
11
-526.44
21
273.012
0
LINE
8
BLACK
6
CONTINUOUS
10
-526.44
20
273.012
11
-526.345
21
272.533
0
LINE
8
BLACK
6
CONTINUOUS
10
-526.345
20
272.533
11
-526.345
21
272.043
0
LINE
8
BLACK
6
CONTINUOUS
10
-526.345
20
272.043
11
-526.44
21
271.564
0
LINE
8
BLACK
6
CONTINUOUS
10
-526.44
20
271.564
11
-526.628
21
271.112
0
LINE
8
BLACK
6
CONTINUOUS
10
-526.628
20
271.112
11
-526.899
21
270.705
0
LINE
8
BLACK
6
CONTINUOUS
10
-526.899
20
270.705
11
-527.245
21
270.359
0
LINE
8
BLACK
6
CONTINUOUS
10
-527.245
20
270.359
11
-527.652
21
270.088
0
LINE
8
BLACK
6
CONTINUOUS
10
-527.652
20
270.088
11
-528.104
21
269.9
0
LINE
8
BLACK
6
CONTINUOUS
10
-528.104
20
269.9
11
-528.583
21
269.805
0
LINE
8
BLACK
6
CONTINUOUS
10
-528.583
20
269.805
11
-529.073
21
269.805
0
LINE
8
BLACK
6
CONTINUOUS
10
-529.073
20
269.805
11
-529.552
21
269.9
0
LINE
8
BLACK
6
CONTINUOUS
10
-529.552
20
269.9
11
-530.004
21
270.088
0
LINE
8
BLACK
6
CONTINUOUS
10
-530.004
20
270.088
11
-530.411
21
270.359
0
LINE
8
BLACK
6
CONTINUOUS
10
-530.411
20
270.359
11
-530.757
21
270.705
0
LINE
8
BLACK
6
CONTINUOUS
10
-530.757
20
270.705
11
-531.028
21
271.112
0
LINE
8
BLACK
6
CONTINUOUS
10
-531.028
20
271.112
11
-531.216
21
271.564
0
LINE
8
BLACK
6
CONTINUOUS
10
-531.216
20
271.564
11
-531.311
21
272.043
0
LINE
8
BLACK
6
CONTINUOUS
10
-531.311
20
272.043
11
-531.311
21
272.533
0
LINE
8
BLACK
6
CONTINUOUS
10
-531.311
20
272.533
11
-531.216
21
273.012
0
LINE
8
BLACK
6
CONTINUOUS
10
-531.149
20
271.584
11
-530.967
21
271.145
0
LINE
8
BLACK
6
CONTINUOUS
10
-530.967
20
271.145
11
-530.703
21
270.75
0
LINE
8
BLACK
6
CONTINUOUS
10
-530.703
20
270.75
11
-530.366
21
270.413
0
LINE
8
BLACK
6
CONTINUOUS
10
-530.366
20
270.413
11
-529.971
21
270.149
0
LINE
8
BLACK
6
CONTINUOUS
10
-529.971
20
270.149
11
-529.532
21
269.967
0
LINE
8
BLACK
6
CONTINUOUS
10
-529.532
20
269.967
11
-529.066
21
269.875
0
LINE
8
BLACK
6
CONTINUOUS
10
-529.066
20
269.875
11
-528.59
21
269.875
0
LINE
8
BLACK
6
CONTINUOUS
10
-528.59
20
269.875
11
-528.124
21
269.967
0
LINE
8
BLACK
6
CONTINUOUS
10
-528.124
20
269.967
11
-527.685
21
270.149
0
LINE
8
BLACK
6
CONTINUOUS
10
-527.685
20
270.149
11
-527.29
21
270.413
0
LINE
8
BLACK
6
CONTINUOUS
10
-527.29
20
270.413
11
-526.953
21
270.75
0
LINE
8
BLACK
6
CONTINUOUS
10
-526.953
20
270.75
11
-526.689
21
271.145
0
LINE
8
BLACK
6
CONTINUOUS
10
-526.689
20
271.145
11
-526.507
21
271.584
0
LINE
8
BLACK
6
CONTINUOUS
10
-526.507
20
271.584
11
-526.415
21
272.05
0
LINE
8
BLACK
6
CONTINUOUS
10
-526.415
20
272.05
11
-526.415
21
272.526
0
LINE
8
BLACK
6
CONTINUOUS
10
-526.415
20
272.526
11
-526.507
21
272.992
0
LINE
8
BLACK
6
CONTINUOUS
10
-526.507
20
272.992
11
-526.689
21
273.431
0
LINE
8
BLACK
6
CONTINUOUS
10
-526.689
20
273.431
11
-526.953
21
273.826
0
LINE
8
BLACK
6
CONTINUOUS
10
-526.953
20
273.826
11
-527.29
21
274.163
0
LINE
8
BLACK
6
CONTINUOUS
10
-527.29
20
274.163
11
-527.685
21
274.427
0
LINE
8
BLACK
6
CONTINUOUS
10
-527.685
20
274.427
11
-528.124
21
274.609
0
LINE
8
BLACK
6
CONTINUOUS
10
-528.124
20
274.609
11
-528.59
21
274.701
0
LINE
8
BLACK
6
CONTINUOUS
10
-528.59
20
274.701
11
-529.066
21
274.701
0
LINE
8
BLACK
6
CONTINUOUS
10
-529.066
20
274.701
11
-529.532
21
274.609
0
LINE
8
BLACK
6
CONTINUOUS
10
-529.532
20
274.609
11
-529.971
21
274.427
0
LINE
8
BLACK
6
CONTINUOUS
10
-529.971
20
274.427
11
-530.366
21
274.163
0
LINE
8
BLACK
6
CONTINUOUS
10
-530.366
20
274.163
11
-530.703
21
273.826
0
LINE
8
BLACK
6
CONTINUOUS
10
-530.703
20
273.826
11
-530.967
21
273.431
0
LINE
8
BLACK
6
CONTINUOUS
10
-530.967
20
273.431
11
-531.149
21
272.992
0
LINE
8
BLACK
6
CONTINUOUS
10
-531.149
20
272.992
11
-531.241
21
272.526
0
LINE
8
BLACK
6
CONTINUOUS
10
-531.241
20
272.526
11
-531.241
21
272.05
0
LINE
8
BLACK
6
CONTINUOUS
10
-531.241
20
272.05
11
-531.149
21
271.584
0
LINE
8
BLACK
6
CONTINUOUS
10
-387.601
20
285.928
11
-387.414
21
286.38
0
LINE
8
BLACK
6
CONTINUOUS
10
-387.414
20
286.38
11
-387.143
21
286.787
0
LINE
8
BLACK
6
CONTINUOUS
10
-387.143
20
286.787
11
-386.797
21
287.133
0
LINE
8
BLACK
6
CONTINUOUS
10
-386.797
20
287.133
11
-386.39
21
287.404
0
LINE
8
BLACK
6
CONTINUOUS
10
-386.39
20
287.404
11
-385.938
21
287.591
0
LINE
8
BLACK
6
CONTINUOUS
10
-385.938
20
287.591
11
-385.458
21
287.687
0
LINE
8
BLACK
6
CONTINUOUS
10
-385.458
20
287.687
11
-384.969
21
287.687
0
LINE
8
BLACK
6
CONTINUOUS
10
-384.969
20
287.687
11
-384.49
21
287.591
0
LINE
8
BLACK
6
CONTINUOUS
10
-384.49
20
287.591
11
-384.038
21
287.404
0
LINE
8
BLACK
6
CONTINUOUS
10
-384.038
20
287.404
11
-383.631
21
287.133
0
LINE
8
BLACK
6
CONTINUOUS
10
-383.631
20
287.133
11
-383.285
21
286.787
0
LINE
8
BLACK
6
CONTINUOUS
10
-383.285
20
286.787
11
-383.013
21
286.38
0
LINE
8
BLACK
6
CONTINUOUS
10
-383.013
20
286.38
11
-382.826
21
285.928
0
LINE
8
BLACK
6
CONTINUOUS
10
-382.826
20
285.928
11
-382.731
21
285.448
0
LINE
8
BLACK
6
CONTINUOUS
10
-382.731
20
285.448
11
-382.731
21
284.959
0
LINE
8
BLACK
6
CONTINUOUS
10
-382.731
20
284.959
11
-382.826
21
284.48
0
LINE
8
BLACK
6
CONTINUOUS
10
-382.826
20
284.48
11
-383.013
21
284.028
0
LINE
8
BLACK
6
CONTINUOUS
10
-383.013
20
284.028
11
-383.285
21
283.621
0
LINE
8
BLACK
6
CONTINUOUS
10
-383.285
20
283.621
11
-383.631
21
283.275
0
LINE
8
BLACK
6
CONTINUOUS
10
-383.631
20
283.275
11
-384.038
21
283.004
0
LINE
8
BLACK
6
CONTINUOUS
10
-384.038
20
283.004
11
-384.49
21
282.816
0
LINE
8
BLACK
6
CONTINUOUS
10
-384.49
20
282.816
11
-384.969
21
282.721
0
LINE
8
BLACK
6
CONTINUOUS
10
-384.969
20
282.721
11
-385.458
21
282.721
0
LINE
8
BLACK
6
CONTINUOUS
10
-385.458
20
282.721
11
-385.938
21
282.816
0
LINE
8
BLACK
6
CONTINUOUS
10
-385.938
20
282.816
11
-386.39
21
283.004
0
LINE
8
BLACK
6
CONTINUOUS
10
-386.39
20
283.004
11
-386.797
21
283.275
0
LINE
8
BLACK
6
CONTINUOUS
10
-386.797
20
283.275
11
-387.143
21
283.621
0
LINE
8
BLACK
6
CONTINUOUS
10
-387.143
20
283.621
11
-387.414
21
284.028
0
LINE
8
BLACK
6
CONTINUOUS
10
-387.414
20
284.028
11
-387.601
21
284.48
0
LINE
8
BLACK
6
CONTINUOUS
10
-387.601
20
284.48
11
-387.697
21
284.959
0
LINE
8
BLACK
6
CONTINUOUS
10
-387.697
20
284.959
11
-387.697
21
285.448
0
LINE
8
BLACK
6
CONTINUOUS
10
-387.697
20
285.448
11
-387.601
21
285.928
0
LINE
8
BLACK
6
CONTINUOUS
10
-387.534
20
284.5
11
-387.353
21
284.061
0
LINE
8
BLACK
6
CONTINUOUS
10
-387.353
20
284.061
11
-387.088
21
283.665
0
LINE
8
BLACK
6
CONTINUOUS
10
-387.088
20
283.665
11
-386.752
21
283.329
0
LINE
8
BLACK
6
CONTINUOUS
10
-386.752
20
283.329
11
-386.357
21
283.065
0
LINE
8
BLACK
6
CONTINUOUS
10
-386.357
20
283.065
11
-385.918
21
282.883
0
LINE
8
BLACK
6
CONTINUOUS
10
-385.918
20
282.883
11
-385.452
21
282.791
0
LINE
8
BLACK
6
CONTINUOUS
10
-385.452
20
282.791
11
-384.976
21
282.791
0
LINE
8
BLACK
6
CONTINUOUS
10
-384.976
20
282.791
11
-384.51
21
282.883
0
LINE
8
BLACK
6
CONTINUOUS
10
-384.51
20
282.883
11
-384.071
21
283.065
0
LINE
8
BLACK
6
CONTINUOUS
10
-384.071
20
283.065
11
-383.675
21
283.329
0
LINE
8
BLACK
6
CONTINUOUS
10
-383.675
20
283.329
11
-383.339
21
283.665
0
LINE
8
BLACK
6
CONTINUOUS
10
-383.339
20
283.665
11
-383.075
21
284.061
0
LINE
8
BLACK
6
CONTINUOUS
10
-383.075
20
284.061
11
-382.893
21
284.5
0
LINE
8
BLACK
6
CONTINUOUS
10
-382.893
20
284.5
11
-382.801
21
284.966
0
LINE
8
BLACK
6
CONTINUOUS
10
-382.801
20
284.966
11
-382.801
21
285.442
0
LINE
8
BLACK
6
CONTINUOUS
10
-382.801
20
285.442
11
-382.893
21
285.908
0
LINE
8
BLACK
6
CONTINUOUS
10
-382.893
20
285.908
11
-383.075
21
286.347
0
LINE
8
BLACK
6
CONTINUOUS
10
-383.075
20
286.347
11
-383.339
21
286.742
0
LINE
8
BLACK
6
CONTINUOUS
10
-383.339
20
286.742
11
-383.675
21
287.078
0
LINE
8
BLACK
6
CONTINUOUS
10
-383.675
20
287.078
11
-384.071
21
287.343
0
LINE
8
BLACK
6
CONTINUOUS
10
-384.071
20
287.343
11
-384.51
21
287.524
0
LINE
8
BLACK
6
CONTINUOUS
10
-384.51
20
287.524
11
-384.976
21
287.617
0
LINE
8
BLACK
6
CONTINUOUS
10
-384.976
20
287.617
11
-385.452
21
287.617
0
LINE
8
BLACK
6
CONTINUOUS
10
-385.452
20
287.617
11
-385.918
21
287.524
0
LINE
8
BLACK
6
CONTINUOUS
10
-385.918
20
287.524
11
-386.357
21
287.343
0
LINE
8
BLACK
6
CONTINUOUS
10
-386.357
20
287.343
11
-386.752
21
287.078
0
LINE
8
BLACK
6
CONTINUOUS
10
-386.752
20
287.078
11
-387.088
21
286.742
0
LINE
8
BLACK
6
CONTINUOUS
10
-387.088
20
286.742
11
-387.353
21
286.347
0
LINE
8
BLACK
6
CONTINUOUS
10
-387.353
20
286.347
11
-387.534
21
285.908
0
LINE
8
BLACK
6
CONTINUOUS
10
-387.534
20
285.908
11
-387.627
21
285.442
0
LINE
8
BLACK
6
CONTINUOUS
10
-387.627
20
285.442
11
-387.627
21
284.966
0
LINE
8
BLACK
6
CONTINUOUS
10
-387.627
20
284.966
11
-387.534
21
284.5
0
LINE
8
BLACK
6
CONTINUOUS
10
-657.441
20
328.323
11
-657.254
21
328.775
0
LINE
8
BLACK
6
CONTINUOUS
10
-657.254
20
328.775
11
-656.982
21
329.182
0
LINE
8
BLACK
6
CONTINUOUS
10
-656.982
20
329.182
11
-656.636
21
329.528
0
LINE
8
BLACK
6
CONTINUOUS
10
-656.636
20
329.528
11
-656.229
21
329.799
0
LINE
8
BLACK
6
CONTINUOUS
10
-656.229
20
329.799
11
-655.778
21
329.987
0
LINE
8
BLACK
6
CONTINUOUS
10
-655.778
20
329.987
11
-655.298
21
330.082
0
LINE
8
BLACK
6
CONTINUOUS
10
-655.298
20
330.082
11
-654.809
21
330.082
0
LINE
8
BLACK
6
CONTINUOUS
10
-654.809
20
330.082
11
-654.329
21
329.987
0
LINE
8
BLACK
6
CONTINUOUS
10
-654.329
20
329.987
11
-653.877
21
329.799
0
LINE
8
BLACK
6
CONTINUOUS
10
-653.877
20
329.799
11
-653.47
21
329.528
0
LINE
8
BLACK
6
CONTINUOUS
10
-653.47
20
329.528
11
-653.125
21
329.182
0
LINE
8
BLACK
6
CONTINUOUS
10
-653.125
20
329.182
11
-652.853
21
328.775
0
LINE
8
BLACK
6
CONTINUOUS
10
-652.853
20
328.775
11
-652.666
21
328.323
0
LINE
8
BLACK
6
CONTINUOUS
10
-652.666
20
328.323
11
-652.57
21
327.844
0
LINE
8
BLACK
6
CONTINUOUS
10
-652.57
20
327.844
11
-652.57
21
327.354
0
LINE
8
BLACK
6
CONTINUOUS
10
-652.57
20
327.354
11
-652.666
21
326.875
0
LINE
8
BLACK
6
CONTINUOUS
10
-652.666
20
326.875
11
-652.853
21
326.423
0
LINE
8
BLACK
6
CONTINUOUS
10
-652.853
20
326.423
11
-653.125
21
326.016
0
LINE
8
BLACK
6
CONTINUOUS
10
-653.125
20
326.016
11
-653.47
21
325.67
0
LINE
8
BLACK
6
CONTINUOUS
10
-653.47
20
325.67
11
-653.877
21
325.399
0
LINE
8
BLACK
6
CONTINUOUS
10
-653.877
20
325.399
11
-654.329
21
325.211
0
LINE
8
BLACK
6
CONTINUOUS
10
-654.329
20
325.211
11
-654.809
21
325.116
0
LINE
8
BLACK
6
CONTINUOUS
10
-654.809
20
325.116
11
-655.298
21
325.116
0
LINE
8
BLACK
6
CONTINUOUS
10
-655.298
20
325.116
11
-655.778
21
325.211
0
LINE
8
BLACK
6
CONTINUOUS
10
-655.778
20
325.211
11
-656.229
21
325.399
0
LINE
8
BLACK
6
CONTINUOUS
10
-656.229
20
325.399
11
-656.636
21
325.67
0
LINE
8
BLACK
6
CONTINUOUS
10
-656.636
20
325.67
11
-656.982
21
326.016
0
LINE
8
BLACK
6
CONTINUOUS
10
-656.982
20
326.016
11
-657.254
21
326.423
0
LINE
8
BLACK
6
CONTINUOUS
10
-657.254
20
326.423
11
-657.441
21
326.875
0
LINE
8
BLACK
6
CONTINUOUS
10
-657.441
20
326.875
11
-657.536
21
327.354
0
LINE
8
BLACK
6
CONTINUOUS
10
-657.536
20
327.354
11
-657.536
21
327.844
0
LINE
8
BLACK
6
CONTINUOUS
10
-657.536
20
327.844
11
-657.441
21
328.323
0
LINE
8
BLACK
6
CONTINUOUS
10
-657.374
20
326.895
11
-657.192
21
326.456
0
LINE
8
BLACK
6
CONTINUOUS
10
-657.192
20
326.456
11
-656.928
21
326.061
0
LINE
8
BLACK
6
CONTINUOUS
10
-656.928
20
326.061
11
-656.592
21
325.724
0
LINE
8
BLACK
6
CONTINUOUS
10
-656.592
20
325.724
11
-656.196
21
325.46
0
LINE
8
BLACK
6
CONTINUOUS
10
-656.196
20
325.46
11
-655.757
21
325.278
0
LINE
8
BLACK
6
CONTINUOUS
10
-655.757
20
325.278
11
-655.291
21
325.186
0
LINE
8
BLACK
6
CONTINUOUS
10
-655.291
20
325.186
11
-654.816
21
325.186
0
LINE
8
BLACK
6
CONTINUOUS
10
-654.816
20
325.186
11
-654.349
21
325.278
0
LINE
8
BLACK
6
CONTINUOUS
10
-654.349
20
325.278
11
-653.91
21
325.46
0
LINE
8
BLACK
6
CONTINUOUS
10
-653.91
20
325.46
11
-653.515
21
325.724
0
LINE
8
BLACK
6
CONTINUOUS
10
-653.515
20
325.724
11
-653.179
21
326.061
0
LINE
8
BLACK
6
CONTINUOUS
10
-653.179
20
326.061
11
-652.915
21
326.456
0
LINE
8
BLACK
6
CONTINUOUS
10
-652.915
20
326.456
11
-652.733
21
326.895
0
LINE
8
BLACK
6
CONTINUOUS
10
-652.733
20
326.895
11
-652.64
21
327.361
0
LINE
8
BLACK
6
CONTINUOUS
10
-652.64
20
327.361
11
-652.64
21
327.837
0
LINE
8
BLACK
6
CONTINUOUS
10
-652.64
20
327.837
11
-652.733
21
328.303
0
LINE
8
BLACK
6
CONTINUOUS
10
-652.733
20
328.303
11
-652.915
21
328.742
0
LINE
8
BLACK
6
CONTINUOUS
10
-652.915
20
328.742
11
-653.179
21
329.137
0
LINE
8
BLACK
6
CONTINUOUS
10
-653.179
20
329.137
11
-653.515
21
329.474
0
LINE
8
BLACK
6
CONTINUOUS
10
-653.515
20
329.474
11
-653.91
21
329.738
0
LINE
8
BLACK
6
CONTINUOUS
10
-653.91
20
329.738
11
-654.349
21
329.92
0
LINE
8
BLACK
6
CONTINUOUS
10
-654.349
20
329.92
11
-654.816
21
330.012
0
LINE
8
BLACK
6
CONTINUOUS
10
-654.816
20
330.012
11
-655.291
21
330.012
0
LINE
8
BLACK
6
CONTINUOUS
10
-655.291
20
330.012
11
-655.757
21
329.92
0
LINE
8
BLACK
6
CONTINUOUS
10
-655.757
20
329.92
11
-656.196
21
329.738
0
LINE
8
BLACK
6
CONTINUOUS
10
-656.196
20
329.738
11
-656.592
21
329.474
0
LINE
8
BLACK
6
CONTINUOUS
10
-656.592
20
329.474
11
-656.928
21
329.137
0
LINE
8
BLACK
6
CONTINUOUS
10
-656.928
20
329.137
11
-657.192
21
328.742
0
LINE
8
BLACK
6
CONTINUOUS
10
-657.192
20
328.742
11
-657.374
21
328.303
0
LINE
8
BLACK
6
CONTINUOUS
10
-657.374
20
328.303
11
-657.467
21
327.837
0
LINE
8
BLACK
6
CONTINUOUS
10
-657.467
20
327.837
11
-657.467
21
327.361
0
LINE
8
BLACK
6
CONTINUOUS
10
-657.467
20
327.361
11
-657.374
21
326.895
0
LINE
8
BLACK
6
CONTINUOUS
10
-403.476
20
330.15
11
-403.289
21
330.601
0
LINE
8
BLACK
6
CONTINUOUS
10
-403.289
20
330.601
11
-403.018
21
331.008
0
LINE
8
BLACK
6
CONTINUOUS
10
-403.018
20
331.008
11
-402.672
21
331.354
0
LINE
8
BLACK
6
CONTINUOUS
10
-402.672
20
331.354
11
-402.265
21
331.626
0
LINE
8
BLACK
6
CONTINUOUS
10
-402.265
20
331.626
11
-401.813
21
331.813
0
LINE
8
BLACK
6
CONTINUOUS
10
-401.813
20
331.813
11
-401.333
21
331.908
0
LINE
8
BLACK
6
CONTINUOUS
10
-401.333
20
331.908
11
-400.844
21
331.908
0
LINE
8
BLACK
6
CONTINUOUS
10
-400.844
20
331.908
11
-400.365
21
331.813
0
LINE
8
BLACK
6
CONTINUOUS
10
-400.365
20
331.813
11
-399.913
21
331.626
0
LINE
8
BLACK
6
CONTINUOUS
10
-399.913
20
331.626
11
-399.506
21
331.354
0
LINE
8
BLACK
6
CONTINUOUS
10
-399.506
20
331.354
11
-399.16
21
331.008
0
LINE
8
BLACK
6
CONTINUOUS
10
-399.16
20
331.008
11
-398.888
21
330.601
0
LINE
8
BLACK
6
CONTINUOUS
10
-398.888
20
330.601
11
-398.701
21
330.15
0
LINE
8
BLACK
6
CONTINUOUS
10
-398.701
20
330.15
11
-398.606
21
329.67
0
LINE
8
BLACK
6
CONTINUOUS
10
-398.606
20
329.67
11
-398.606
21
329.181
0
LINE
8
BLACK
6
CONTINUOUS
10
-398.606
20
329.181
11
-398.701
21
328.701
0
LINE
8
BLACK
6
CONTINUOUS
10
-398.701
20
328.701
11
-398.888
21
328.249
0
LINE
8
BLACK
6
CONTINUOUS
10
-398.888
20
328.249
11
-399.16
21
327.842
0
LINE
8
BLACK
6
CONTINUOUS
10
-399.16
20
327.842
11
-399.506
21
327.497
0
LINE
8
BLACK
6
CONTINUOUS
10
-399.506
20
327.497
11
-399.913
21
327.225
0
LINE
8
BLACK
6
CONTINUOUS
10
-399.913
20
327.225
11
-400.365
21
327.038
0
LINE
8
BLACK
6
CONTINUOUS
10
-400.365
20
327.038
11
-400.844
21
326.942
0
LINE
8
BLACK
6
CONTINUOUS
10
-400.844
20
326.942
11
-401.333
21
326.942
0
LINE
8
BLACK
6
CONTINUOUS
10
-401.333
20
326.942
11
-401.813
21
327.038
0
LINE
8
BLACK
6
CONTINUOUS
10
-401.813
20
327.038
11
-402.265
21
327.225
0
LINE
8
BLACK
6
CONTINUOUS
10
-402.265
20
327.225
11
-402.672
21
327.497
0
LINE
8
BLACK
6
CONTINUOUS
10
-402.672
20
327.497
11
-403.018
21
327.842
0
LINE
8
BLACK
6
CONTINUOUS
10
-403.018
20
327.842
11
-403.289
21
328.249
0
LINE
8
BLACK
6
CONTINUOUS
10
-403.289
20
328.249
11
-403.476
21
328.701
0
LINE
8
BLACK
6
CONTINUOUS
10
-403.476
20
328.701
11
-403.572
21
329.181
0
LINE
8
BLACK
6
CONTINUOUS
10
-403.572
20
329.181
11
-403.572
21
329.67
0
LINE
8
BLACK
6
CONTINUOUS
10
-403.572
20
329.67
11
-403.476
21
330.15
0
LINE
8
BLACK
6
CONTINUOUS
10
-403.409
20
328.721
11
-403.228
21
328.282
0
LINE
8
BLACK
6
CONTINUOUS
10
-403.228
20
328.282
11
-402.963
21
327.887
0
LINE
8
BLACK
6
CONTINUOUS
10
-402.963
20
327.887
11
-402.627
21
327.551
0
LINE
8
BLACK
6
CONTINUOUS
10
-402.627
20
327.551
11
-402.232
21
327.287
0
LINE
8
BLACK
6
CONTINUOUS
10
-402.232
20
327.287
11
-401.793
21
327.105
0
LINE
8
BLACK
6
CONTINUOUS
10
-401.793
20
327.105
11
-401.327
21
327.012
0
LINE
8
BLACK
6
CONTINUOUS
10
-401.327
20
327.012
11
-400.851
21
327.012
0
LINE
8
BLACK
6
CONTINUOUS
10
-400.851
20
327.012
11
-400.385
21
327.105
0
LINE
8
BLACK
6
CONTINUOUS
10
-400.385
20
327.105
11
-399.946
21
327.287
0
LINE
8
BLACK
6
CONTINUOUS
10
-399.946
20
327.287
11
-399.55
21
327.551
0
LINE
8
BLACK
6
CONTINUOUS
10
-399.55
20
327.551
11
-399.214
21
327.887
0
LINE
8
BLACK
6
CONTINUOUS
10
-399.214
20
327.887
11
-398.95
21
328.282
0
LINE
8
BLACK
6
CONTINUOUS
10
-398.95
20
328.282
11
-398.768
21
328.721
0
LINE
8
BLACK
6
CONTINUOUS
10
-398.768
20
328.721
11
-398.676
21
329.188
0
LINE
8
BLACK
6
CONTINUOUS
10
-398.676
20
329.188
11
-398.676
21
329.663
0
LINE
8
BLACK
6
CONTINUOUS
10
-398.676
20
329.663
11
-398.768
21
330.129
0
LINE
8
BLACK
6
CONTINUOUS
10
-398.768
20
330.129
11
-398.95
21
330.568
0
LINE
8
BLACK
6
CONTINUOUS
10
-398.95
20
330.568
11
-399.214
21
330.964
0
LINE
8
BLACK
6
CONTINUOUS
10
-399.214
20
330.964
11
-399.55
21
331.3
0
LINE
8
BLACK
6
CONTINUOUS
10
-399.55
20
331.3
11
-399.946
21
331.564
0
LINE
8
BLACK
6
CONTINUOUS
10
-399.946
20
331.564
11
-400.385
21
331.746
0
LINE
8
BLACK
6
CONTINUOUS
10
-400.385
20
331.746
11
-400.851
21
331.839
0
LINE
8
BLACK
6
CONTINUOUS
10
-400.851
20
331.839
11
-401.327
21
331.839
0
LINE
8
BLACK
6
CONTINUOUS
10
-401.327
20
331.839
11
-401.793
21
331.746
0
LINE
8
BLACK
6
CONTINUOUS
10
-401.793
20
331.746
11
-402.232
21
331.564
0
LINE
8
BLACK
6
CONTINUOUS
10
-402.232
20
331.564
11
-402.627
21
331.3
0
LINE
8
BLACK
6
CONTINUOUS
10
-402.627
20
331.3
11
-402.963
21
330.964
0
LINE
8
BLACK
6
CONTINUOUS
10
-402.963
20
330.964
11
-403.228
21
330.568
0
LINE
8
BLACK
6
CONTINUOUS
10
-403.228
20
330.568
11
-403.409
21
330.129
0
LINE
8
BLACK
6
CONTINUOUS
10
-403.409
20
330.129
11
-403.502
21
329.663
0
LINE
8
BLACK
6
CONTINUOUS
10
-403.502
20
329.663
11
-403.502
21
329.188
0
LINE
8
BLACK
6
CONTINUOUS
10
-403.502
20
329.188
11
-403.409
21
328.721
  0
ENDSEC
  0
EOF
