  0
SECTION
  2
HEADER
  9
$ANGBASE
  50
0.0
  9
$ANGDIR
  70
1
  9
$MEASUREMENT
  70
1
  0
ENDSEC
  0
SECTION
  2
TABLES
  0
TABLE
  2
LTYPE
  70
4
  0
LTYPE
  5
40F
  2
CONTINUOUS
  70
0
  3
Solid line
  72
65
  73
0
  40
0.0
  0
LTYPE
  5
410
  2
DASHDOT
 70
0
  3
Dash Dot ____ _ ____ _
 72
65
 73
4
 40
2.0
 49
1.25
 49
-0.25
 49
0.25
 49
-0.25
  0
LTYPE
  5
411
  2
DASHED
 70
0
  3
Dashed __ __ __ __ __
 72
65
 73
2
 40
0.75
 49
0.5
 49
-0.25
  0
LTYPE
  5
43B
  2
DOTTED
 70
0
  3
Dotted .  .  .  .
 72
65
 73
2
 40
0.2
 49
0.0
 49
-0.2
  0
ENDTAB
  0
TABLE
  2
STYLE
  70
4
  0
STYLE
  2
KICAD
  70
0
  40
0
  41
1
  42
1
  50
0
  71
0
  3
isocp.shx
  0
STYLE
  2
KICADB
  70
0
  40
0
  41
1
  42
1
  50
0
  71
0
  3
isocp.shx
  0
STYLE
  2
KICADI
  70
0
  40
0
  41
1
  42
1
  50
15
  71
0
  3
isocp.shx
  0
STYLE
  2
KICADBI
  70
0
  40
0
  41
1
  42
1
  50
15
  71
0
  3
isocp.shx
  0
ENDTAB
  0
TABLE
  2
LAYER
  70
1
  0
LAYER
  2
BLACK
  70
0
  62
7
  6
CONTINUOUS
  0
ENDTAB
  0
ENDSEC
  0
SECTION
  2
ENTITIES
0
LINE
8
BLACK
6
CONTINUOUS
10
-361.537
20
348.073
11
-361.535
21
348.072
0
LINE
8
BLACK
6
CONTINUOUS
10
-361.535
20
348.072
11
-361.533
21
348.071
0
LINE
8
BLACK
6
CONTINUOUS
10
-361.533
20
348.071
11
-361.26
21
347.926
0
LINE
8
BLACK
6
CONTINUOUS
10
-361.26
20
347.926
11
-361.259
21
347.925
0
LINE
8
BLACK
6
CONTINUOUS
10
-361.259
20
347.925
11
-361.258
21
347.924
0
LINE
8
BLACK
6
CONTINUOUS
10
-361.258
20
347.924
11
-361.256
21
347.923
0
LINE
8
BLACK
6
CONTINUOUS
10
-361.256
20
347.923
11
-361.016
21
347.727
0
LINE
8
BLACK
6
CONTINUOUS
10
-361.016
20
347.727
11
-361.016
21
347.727
0
LINE
8
BLACK
6
CONTINUOUS
10
-361.016
20
347.727
11
-361.016
21
347.727
0
LINE
8
BLACK
6
CONTINUOUS
10
-361.016
20
347.727
11
-361.015
21
347.727
0
LINE
8
BLACK
6
CONTINUOUS
10
-361.015
20
347.727
11
-361.014
21
347.725
0
LINE
8
BLACK
6
CONTINUOUS
10
-361.014
20
347.725
11
-361.012
21
347.724
0
LINE
8
BLACK
6
CONTINUOUS
10
-361.012
20
347.724
11
-360.815
21
347.485
0
LINE
8
BLACK
6
CONTINUOUS
10
-360.815
20
347.485
11
-360.815
21
347.485
0
LINE
8
BLACK
6
CONTINUOUS
10
-360.815
20
347.485
11
-360.815
21
347.485
0
LINE
8
BLACK
6
CONTINUOUS
10
-360.815
20
347.485
11
-360.814
21
347.485
0
LINE
8
BLACK
6
CONTINUOUS
10
-360.814
20
347.485
11
-360.813
21
347.483
0
LINE
8
BLACK
6
CONTINUOUS
10
-360.813
20
347.483
11
-360.812
21
347.481
0
LINE
8
BLACK
6
CONTINUOUS
10
-360.812
20
347.481
11
-360.665
21
347.208
0
LINE
8
BLACK
6
CONTINUOUS
10
-360.665
20
347.208
11
-360.664
21
347.208
0
LINE
8
BLACK
6
CONTINUOUS
10
-360.664
20
347.208
11
-360.664
21
347.206
0
LINE
8
BLACK
6
CONTINUOUS
10
-360.664
20
347.206
11
-360.663
21
347.204
0
LINE
8
BLACK
6
CONTINUOUS
10
-360.663
20
347.204
11
-360.571
21
346.908
0
LINE
8
BLACK
6
CONTINUOUS
10
-360.571
20
346.908
11
-360.571
21
346.908
0
LINE
8
BLACK
6
CONTINUOUS
10
-360.571
20
346.908
11
-360.571
21
346.905
0
LINE
8
BLACK
6
CONTINUOUS
10
-360.571
20
346.905
11
-360.57
21
346.903
0
LINE
8
BLACK
6
CONTINUOUS
10
-360.57
20
346.903
11
-360.538
21
346.595
0
LINE
8
BLACK
6
CONTINUOUS
10
-360.538
20
346.595
11
-360.538
21
346.595
0
LINE
8
BLACK
6
CONTINUOUS
10
-360.538
20
346.595
11
-360.538
21
346.594
0
LINE
8
BLACK
6
CONTINUOUS
10
-360.538
20
346.594
11
-360.538
21
346.592
0
LINE
8
BLACK
6
CONTINUOUS
10
-360.538
20
346.592
11
-360.538
21
346.583
0
LINE
8
BLACK
6
CONTINUOUS
10
-360.538
20
346.583
11
-360.537
21
346.582
0
LINE
8
BLACK
6
CONTINUOUS
10
-360.537
20
346.582
11
-360.537
21
214.024
0
LINE
8
BLACK
6
CONTINUOUS
10
-360.537
20
214.024
11
-360.538
21
214.023
0
LINE
8
BLACK
6
CONTINUOUS
10
-360.538
20
214.023
11
-360.538
21
214.023
0
LINE
8
BLACK
6
CONTINUOUS
10
-360.538
20
214.023
11
-360.568
21
213.714
0
LINE
8
BLACK
6
CONTINUOUS
10
-360.568
20
213.714
11
-360.568
21
213.714
0
LINE
8
BLACK
6
CONTINUOUS
10
-360.568
20
213.714
11
-360.568
21
213.712
0
LINE
8
BLACK
6
CONTINUOUS
10
-360.568
20
213.712
11
-360.569
21
213.709
0
LINE
8
BLACK
6
CONTINUOUS
10
-360.569
20
213.709
11
-360.658
21
213.413
0
LINE
8
BLACK
6
CONTINUOUS
10
-360.658
20
213.413
11
-360.658
21
213.412
0
LINE
8
BLACK
6
CONTINUOUS
10
-360.658
20
213.412
11
-360.659
21
213.41
0
LINE
8
BLACK
6
CONTINUOUS
10
-360.659
20
213.41
11
-360.66
21
213.408
0
LINE
8
BLACK
6
CONTINUOUS
10
-360.66
20
213.408
11
-360.806
21
213.135
0
LINE
8
BLACK
6
CONTINUOUS
10
-360.806
20
213.135
11
-360.806
21
213.134
0
LINE
8
BLACK
6
CONTINUOUS
10
-360.806
20
213.134
11
-360.807
21
213.133
0
LINE
8
BLACK
6
CONTINUOUS
10
-360.807
20
213.133
11
-360.808
21
213.131
0
LINE
8
BLACK
6
CONTINUOUS
10
-360.808
20
213.131
11
-361.004
21
212.891
0
LINE
8
BLACK
6
CONTINUOUS
10
-361.004
20
212.891
11
-361.004
21
212.89
0
LINE
8
BLACK
6
CONTINUOUS
10
-361.004
20
212.89
11
-361.006
21
212.889
0
LINE
8
BLACK
6
CONTINUOUS
10
-361.006
20
212.889
11
-361.008
21
212.887
0
LINE
8
BLACK
6
CONTINUOUS
10
-361.008
20
212.887
11
-361.246
21
212.69
0
LINE
8
BLACK
6
CONTINUOUS
10
-361.246
20
212.69
11
-361.247
21
212.689
0
LINE
8
BLACK
6
CONTINUOUS
10
-361.247
20
212.689
11
-361.249
21
212.688
0
LINE
8
BLACK
6
CONTINUOUS
10
-361.249
20
212.688
11
-361.25
21
212.687
0
LINE
8
BLACK
6
CONTINUOUS
10
-361.25
20
212.687
11
-361.523
21
212.54
0
LINE
8
BLACK
6
CONTINUOUS
10
-361.523
20
212.54
11
-361.523
21
212.539
0
LINE
8
BLACK
6
CONTINUOUS
10
-361.523
20
212.539
11
-361.525
21
212.539
0
LINE
8
BLACK
6
CONTINUOUS
10
-361.525
20
212.539
11
-361.527
21
212.538
0
LINE
8
BLACK
6
CONTINUOUS
10
-361.527
20
212.538
11
-361.823
21
212.446
0
LINE
8
BLACK
6
CONTINUOUS
10
-361.823
20
212.446
11
-361.824
21
212.446
0
LINE
8
BLACK
6
CONTINUOUS
10
-361.824
20
212.446
11
-361.826
21
212.446
0
LINE
8
BLACK
6
CONTINUOUS
10
-361.826
20
212.446
11
-361.828
21
212.445
0
LINE
8
BLACK
6
CONTINUOUS
10
-361.828
20
212.445
11
-362.136
21
212.413
0
LINE
8
BLACK
6
CONTINUOUS
10
-362.136
20
212.413
11
-362.137
21
212.413
0
LINE
8
BLACK
6
CONTINUOUS
10
-362.137
20
212.413
11
-362.138
21
212.413
0
LINE
8
BLACK
6
CONTINUOUS
10
-362.138
20
212.413
11
-362.139
21
212.413
0
LINE
8
BLACK
6
CONTINUOUS
10
-362.139
20
212.413
11
-362.149
21
212.413
0
LINE
8
BLACK
6
CONTINUOUS
10
-362.149
20
212.413
11
-362.149
21
212.412
0
LINE
8
BLACK
6
CONTINUOUS
10
-362.149
20
212.412
11
-684.414
21
212.412
0
LINE
8
BLACK
6
CONTINUOUS
10
-684.414
20
212.412
11
-684.415
21
212.413
0
LINE
8
BLACK
6
CONTINUOUS
10
-684.415
20
212.413
11
-684.415
21
212.413
0
LINE
8
BLACK
6
CONTINUOUS
10
-684.415
20
212.413
11
-684.723
21
212.443
0
LINE
8
BLACK
6
CONTINUOUS
10
-684.723
20
212.443
11
-684.724
21
212.443
0
LINE
8
BLACK
6
CONTINUOUS
10
-684.724
20
212.443
11
-684.726
21
212.443
0
LINE
8
BLACK
6
CONTINUOUS
10
-684.726
20
212.443
11
-684.728
21
212.444
0
LINE
8
BLACK
6
CONTINUOUS
10
-684.728
20
212.444
11
-685.025
21
212.533
0
LINE
8
BLACK
6
CONTINUOUS
10
-685.025
20
212.533
11
-685.025
21
212.533
0
LINE
8
BLACK
6
CONTINUOUS
10
-685.025
20
212.533
11
-685.027
21
212.534
0
LINE
8
BLACK
6
CONTINUOUS
10
-685.027
20
212.534
11
-685.029
21
212.535
0
LINE
8
BLACK
6
CONTINUOUS
10
-685.029
20
212.535
11
-685.303
21
212.681
0
LINE
8
BLACK
6
CONTINUOUS
10
-685.303
20
212.681
11
-685.303
21
212.681
0
LINE
8
BLACK
6
CONTINUOUS
10
-685.303
20
212.681
11
-685.305
21
212.682
0
LINE
8
BLACK
6
CONTINUOUS
10
-685.305
20
212.682
11
-685.307
21
212.683
0
LINE
8
BLACK
6
CONTINUOUS
10
-685.307
20
212.683
11
-685.547
21
212.879
0
LINE
8
BLACK
6
CONTINUOUS
10
-685.547
20
212.879
11
-685.547
21
212.879
0
LINE
8
BLACK
6
CONTINUOUS
10
-685.547
20
212.879
11
-685.549
21
212.881
0
LINE
8
BLACK
6
CONTINUOUS
10
-685.549
20
212.881
11
-685.55
21
212.883
0
LINE
8
BLACK
6
CONTINUOUS
10
-685.55
20
212.883
11
-685.748
21
213.121
0
LINE
8
BLACK
6
CONTINUOUS
10
-685.748
20
213.121
11
-685.748
21
213.122
0
LINE
8
BLACK
6
CONTINUOUS
10
-685.748
20
213.122
11
-685.749
21
213.124
0
LINE
8
BLACK
6
CONTINUOUS
10
-685.749
20
213.124
11
-685.751
21
213.125
0
LINE
8
BLACK
6
CONTINUOUS
10
-685.751
20
213.125
11
-685.898
21
213.398
0
LINE
8
BLACK
6
CONTINUOUS
10
-685.898
20
213.398
11
-685.898
21
213.398
0
LINE
8
BLACK
6
CONTINUOUS
10
-685.898
20
213.398
11
-685.899
21
213.4
0
LINE
8
BLACK
6
CONTINUOUS
10
-685.899
20
213.4
11
-685.9
21
213.402
0
LINE
8
BLACK
6
CONTINUOUS
10
-685.9
20
213.402
11
-685.991
21
213.698
0
LINE
8
BLACK
6
CONTINUOUS
10
-685.991
20
213.698
11
-685.992
21
213.699
0
LINE
8
BLACK
6
CONTINUOUS
10
-685.992
20
213.699
11
-685.992
21
213.701
0
LINE
8
BLACK
6
CONTINUOUS
10
-685.992
20
213.701
11
-685.992
21
213.703
0
LINE
8
BLACK
6
CONTINUOUS
10
-685.992
20
213.703
11
-686.025
21
214.011
0
LINE
8
BLACK
6
CONTINUOUS
10
-686.025
20
214.011
11
-686.025
21
214.012
0
LINE
8
BLACK
6
CONTINUOUS
10
-686.025
20
214.012
11
-686.025
21
214.013
0
LINE
8
BLACK
6
CONTINUOUS
10
-686.025
20
214.013
11
-686.025
21
214.014
0
LINE
8
BLACK
6
CONTINUOUS
10
-686.025
20
214.014
11
-686.025
21
214.024
0
LINE
8
BLACK
6
CONTINUOUS
10
-686.025
20
214.024
11
-686.025
21
214.024
0
LINE
8
BLACK
6
CONTINUOUS
10
-686.025
20
214.024
11
-686.025
21
220.374
0
LINE
8
BLACK
6
CONTINUOUS
10
-686.025
20
220.374
11
-686.025
21
220.374
0
LINE
8
BLACK
6
CONTINUOUS
10
-686.025
20
220.374
11
-686.025
21
340.23
0
LINE
8
BLACK
6
CONTINUOUS
10
-686.025
20
340.23
11
-686.025
21
340.23
0
LINE
8
BLACK
6
CONTINUOUS
10
-686.025
20
340.23
11
-686.025
21
346.582
0
LINE
8
BLACK
6
CONTINUOUS
10
-686.025
20
346.582
11
-686.025
21
346.584
0
LINE
8
BLACK
6
CONTINUOUS
10
-686.025
20
346.584
11
-686.025
21
346.584
0
LINE
8
BLACK
6
CONTINUOUS
10
-686.025
20
346.584
11
-685.995
21
346.892
0
LINE
8
BLACK
6
CONTINUOUS
10
-685.995
20
346.892
11
-685.995
21
346.892
0
LINE
8
BLACK
6
CONTINUOUS
10
-685.995
20
346.892
11
-685.994
21
346.895
0
LINE
8
BLACK
6
CONTINUOUS
10
-685.994
20
346.895
11
-685.994
21
346.897
0
LINE
8
BLACK
6
CONTINUOUS
10
-685.994
20
346.897
11
-685.904
21
347.193
0
LINE
8
BLACK
6
CONTINUOUS
10
-685.904
20
347.193
11
-685.904
21
347.194
0
LINE
8
BLACK
6
CONTINUOUS
10
-685.904
20
347.194
11
-685.903
21
347.196
0
LINE
8
BLACK
6
CONTINUOUS
10
-685.903
20
347.196
11
-685.902
21
347.198
0
LINE
8
BLACK
6
CONTINUOUS
10
-685.902
20
347.198
11
-685.757
21
347.471
0
LINE
8
BLACK
6
CONTINUOUS
10
-685.757
20
347.471
11
-685.757
21
347.472
0
LINE
8
BLACK
6
CONTINUOUS
10
-685.757
20
347.472
11
-685.755
21
347.474
0
LINE
8
BLACK
6
CONTINUOUS
10
-685.755
20
347.474
11
-685.754
21
347.476
0
LINE
8
BLACK
6
CONTINUOUS
10
-685.754
20
347.476
11
-685.558
21
347.716
0
LINE
8
BLACK
6
CONTINUOUS
10
-685.558
20
347.716
11
-685.558
21
347.716
0
LINE
8
BLACK
6
CONTINUOUS
10
-685.558
20
347.716
11
-685.558
21
347.716
0
LINE
8
BLACK
6
CONTINUOUS
10
-685.558
20
347.716
11
-685.558
21
347.716
0
LINE
8
BLACK
6
CONTINUOUS
10
-685.558
20
347.716
11
-685.556
21
347.718
0
LINE
8
BLACK
6
CONTINUOUS
10
-685.556
20
347.718
11
-685.555
21
347.719
0
LINE
8
BLACK
6
CONTINUOUS
10
-685.555
20
347.719
11
-685.316
21
347.917
0
LINE
8
BLACK
6
CONTINUOUS
10
-685.316
20
347.917
11
-685.316
21
347.917
0
LINE
8
BLACK
6
CONTINUOUS
10
-685.316
20
347.917
11
-685.316
21
347.917
0
LINE
8
BLACK
6
CONTINUOUS
10
-685.316
20
347.917
11
-685.316
21
347.917
0
LINE
8
BLACK
6
CONTINUOUS
10
-685.316
20
347.917
11
-685.314
21
347.918
0
LINE
8
BLACK
6
CONTINUOUS
10
-685.314
20
347.918
11
-685.312
21
347.919
0
LINE
8
BLACK
6
CONTINUOUS
10
-685.312
20
347.919
11
-685.04
21
348.067
0
LINE
8
BLACK
6
CONTINUOUS
10
-685.04
20
348.067
11
-685.039
21
348.067
0
LINE
8
BLACK
6
CONTINUOUS
10
-685.039
20
348.067
11
-685.037
21
348.068
0
LINE
8
BLACK
6
CONTINUOUS
10
-685.037
20
348.068
11
-685.035
21
348.069
0
LINE
8
BLACK
6
CONTINUOUS
10
-685.035
20
348.069
11
-684.739
21
348.16
0
LINE
8
BLACK
6
CONTINUOUS
10
-684.739
20
348.16
11
-684.739
21
348.16
0
LINE
8
BLACK
6
CONTINUOUS
10
-684.739
20
348.16
11
-684.737
21
348.161
0
LINE
8
BLACK
6
CONTINUOUS
10
-684.737
20
348.161
11
-684.734
21
348.161
0
LINE
8
BLACK
6
CONTINUOUS
10
-684.734
20
348.161
11
-684.426
21
348.194
0
LINE
8
BLACK
6
CONTINUOUS
10
-684.426
20
348.194
11
-684.426
21
348.194
0
LINE
8
BLACK
6
CONTINUOUS
10
-684.426
20
348.194
11
-684.425
21
348.194
0
LINE
8
BLACK
6
CONTINUOUS
10
-684.425
20
348.194
11
-684.424
21
348.194
0
LINE
8
BLACK
6
CONTINUOUS
10
-684.424
20
348.194
11
-684.414
21
348.194
0
LINE
8
BLACK
6
CONTINUOUS
10
-684.414
20
348.194
11
-684.414
21
348.194
0
LINE
8
BLACK
6
CONTINUOUS
10
-684.414
20
348.194
11
-362.149
21
348.194
0
LINE
8
BLACK
6
CONTINUOUS
10
-362.149
20
348.194
11
-362.148
21
348.194
0
LINE
8
BLACK
6
CONTINUOUS
10
-362.148
20
348.194
11
-362.148
21
348.194
0
LINE
8
BLACK
6
CONTINUOUS
10
-362.148
20
348.194
11
-361.839
21
348.163
0
LINE
8
BLACK
6
CONTINUOUS
10
-361.839
20
348.163
11
-361.839
21
348.163
0
LINE
8
BLACK
6
CONTINUOUS
10
-361.839
20
348.163
11
-361.837
21
348.163
0
LINE
8
BLACK
6
CONTINUOUS
10
-361.837
20
348.163
11
-361.834
21
348.162
0
LINE
8
BLACK
6
CONTINUOUS
10
-361.834
20
348.162
11
-361.538
21
348.073
0
LINE
8
BLACK
6
CONTINUOUS
10
-361.538
20
348.073
11
-361.538
21
348.073
0
LINE
8
BLACK
6
CONTINUOUS
10
-361.538
20
348.073
11
-361.537
21
348.073
0
LINE
8
BLACK
6
CONTINUOUS
10
-685.975
20
214.015
11
-685.943
21
213.711
0
LINE
8
BLACK
6
CONTINUOUS
10
-685.943
20
213.711
11
-685.853
21
213.42
0
LINE
8
BLACK
6
CONTINUOUS
10
-685.853
20
213.42
11
-685.708
21
213.151
0
LINE
8
BLACK
6
CONTINUOUS
10
-685.708
20
213.151
11
-685.513
21
212.916
0
LINE
8
BLACK
6
CONTINUOUS
10
-685.513
20
212.916
11
-685.277
21
212.724
0
LINE
8
BLACK
6
CONTINUOUS
10
-685.277
20
212.724
11
-685.008
21
212.581
0
LINE
8
BLACK
6
CONTINUOUS
10
-685.008
20
212.581
11
-684.716
21
212.492
0
LINE
8
BLACK
6
CONTINUOUS
10
-684.716
20
212.492
11
-684.411
21
212.462
0
LINE
8
BLACK
6
CONTINUOUS
10
-684.411
20
212.462
11
-362.15
21
212.462
0
LINE
8
BLACK
6
CONTINUOUS
10
-362.15
20
212.462
11
-362.14
21
212.463
0
LINE
8
BLACK
6
CONTINUOUS
10
-362.14
20
212.463
11
-361.836
21
212.495
0
LINE
8
BLACK
6
CONTINUOUS
10
-361.836
20
212.495
11
-361.545
21
212.585
0
LINE
8
BLACK
6
CONTINUOUS
10
-361.545
20
212.585
11
-361.276
21
212.73
0
LINE
8
BLACK
6
CONTINUOUS
10
-361.276
20
212.73
11
-361.041
21
212.924
0
LINE
8
BLACK
6
CONTINUOUS
10
-361.041
20
212.924
11
-360.849
21
213.16
0
LINE
8
BLACK
6
CONTINUOUS
10
-360.849
20
213.16
11
-360.706
21
213.43
0
LINE
8
BLACK
6
CONTINUOUS
10
-360.706
20
213.43
11
-360.617
21
213.722
0
LINE
8
BLACK
6
CONTINUOUS
10
-360.617
20
213.722
11
-360.587
21
214.026
0
LINE
8
BLACK
6
CONTINUOUS
10
-360.587
20
214.026
11
-360.587
21
220.376
0
LINE
8
BLACK
6
CONTINUOUS
10
-360.587
20
220.376
11
-360.587
21
340.232
0
LINE
8
BLACK
6
CONTINUOUS
10
-360.587
20
340.232
11
-360.587
21
340.232
0
LINE
8
BLACK
6
CONTINUOUS
10
-360.587
20
340.232
11
-360.587
21
346.581
0
LINE
8
BLACK
6
CONTINUOUS
10
-360.587
20
346.581
11
-360.587
21
346.581
0
LINE
8
BLACK
6
CONTINUOUS
10
-360.587
20
346.581
11
-360.588
21
346.591
0
LINE
8
BLACK
6
CONTINUOUS
10
-360.588
20
346.591
11
-360.62
21
346.895
0
LINE
8
BLACK
6
CONTINUOUS
10
-360.62
20
346.895
11
-360.71
21
347.187
0
LINE
8
BLACK
6
CONTINUOUS
10
-360.71
20
347.187
11
-360.855
21
347.455
0
LINE
8
BLACK
6
CONTINUOUS
10
-360.855
20
347.455
11
-361.049
21
347.69
0
LINE
8
BLACK
6
CONTINUOUS
10
-361.049
20
347.69
11
-361.285
21
347.883
0
LINE
8
BLACK
6
CONTINUOUS
10
-361.285
20
347.883
11
-361.555
21
348.026
0
LINE
8
BLACK
6
CONTINUOUS
10
-361.555
20
348.026
11
-361.847
21
348.114
0
LINE
8
BLACK
6
CONTINUOUS
10
-361.847
20
348.114
11
-362.151
21
348.144
0
LINE
8
BLACK
6
CONTINUOUS
10
-362.151
20
348.144
11
-684.412
21
348.144
0
LINE
8
BLACK
6
CONTINUOUS
10
-684.412
20
348.144
11
-684.422
21
348.144
0
LINE
8
BLACK
6
CONTINUOUS
10
-684.422
20
348.144
11
-684.727
21
348.112
0
LINE
8
BLACK
6
CONTINUOUS
10
-684.727
20
348.112
11
-685.018
21
348.022
0
LINE
8
BLACK
6
CONTINUOUS
10
-685.018
20
348.022
11
-685.286
21
347.877
0
LINE
8
BLACK
6
CONTINUOUS
10
-685.286
20
347.877
11
-685.521
21
347.682
0
LINE
8
BLACK
6
CONTINUOUS
10
-685.521
20
347.682
11
-685.714
21
347.446
0
LINE
8
BLACK
6
CONTINUOUS
10
-685.714
20
347.446
11
-685.857
21
347.177
0
LINE
8
BLACK
6
CONTINUOUS
10
-685.857
20
347.177
11
-685.945
21
346.885
0
LINE
8
BLACK
6
CONTINUOUS
10
-685.945
20
346.885
11
-685.975
21
346.58
0
LINE
8
BLACK
6
CONTINUOUS
10
-685.975
20
346.58
11
-685.975
21
214.025
0
LINE
8
BLACK
6
CONTINUOUS
10
-685.975
20
214.025
11
-685.975
21
214.015
  0
ENDSEC
  0
EOF
