0
SECTION
2
HEADER
9
$INSUNITS
70
4
9
$ACADVER
1
AC1014
9
$HANDSEED
5
FFFF
0
ENDSEC
0
SECTION
2
TABLES
0
TABLE
2
VPORT
5
8
100
AcDbSymbolTable
0
ENDTAB
0
TABLE
2
LTYPE
5
5
100
AcDbSymbolTable
0
LTYPE
5
14
100
AcDbSymbolTableRecord
100
AcDbLinetypeTableRecord
2
BYBLOCK
70
0
0
LTYPE
5
15
100
AcDbSymbolTableRecord
100
AcDbLinetypeTableRecord
2
BYLAYER
70
0
0
ENDTAB
0
TABLE
2
LAYER
5
2
100
AcDbSymbolTable
70
2
0
LAYER
5
50
100
AcDbSymbolTableRecord
100
AcDbLayerTableRecord
2
0
70
0
6
CONTINUOUS
0
ENDTAB
0
TABLE
2
STYLE
5
3
100
AcDbSymbolTable
70
1
0
STYLE
5
11
100
AcDbSymbolTableRecord
100
AcDbTextStyleTableRecord
2
STANDARD
70
0
0
ENDTAB
0
TABLE
2
VIEW
5
6
100
AcDbSymbolTable
70
0
0
ENDTAB
0
TABLE
2
UCS
5
7
100
AcDbSymbolTable
70
0
0
ENDTAB
0
TABLE
2
APPID
5
9
100
AcDbSymbolTable
70
2
0
APPID
5
12
100
AcDbSymbolTableRecord
100
AcDbRegAppTableRecord
2
ACAD
70
0
0
ENDTAB
0
TABLE
2
DIMSTYLE
5
A
100
AcDbSymbolTable
70
1
0
ENDTAB
0
TABLE
2
BLOCK_RECORD
5
1
100
AcDbSymbolTable
70
1
0
BLOCK_RECORD
5
1F
100
AcDbSymbolTableRecord
100
AcDbBlockTableRecord
2
*MODEL_SPACE
0
BLOCK_RECORD
5
1B
100
AcDbSymbolTableRecord
100
AcDbBlockTableRecord
2
*PAPER_SPACE
0
ENDTAB
0
ENDSEC
0
SECTION
2
BLOCKS
0
BLOCK
5
20
100
AcDbEntity
100
AcDbBlockBegin
2
*MODEL_SPACE
0
ENDBLK
5
21
100
AcDbEntity
100
AcDbBlockEnd
0
BLOCK
5
1C
100
AcDbEntity
100
AcDbBlockBegin
2
*PAPER_SPACE
0
ENDBLK
5
1D
100
AcDbEntity
100
AcDbBlockEnd
0
ENDSEC
0
SECTION
2
ENTITIES
0
LWPOLYLINE
5
100
100
AcDbEntity
8
0
100
AcDbPolyline
90
4
70
1
43
0.0
10
149.88499999999999
20
112.50300000000001
10
135.88400000000001
20
112.50300000000001
10
135.88400000000001
20
126.503
10
149.88499999999999
20
126.503
0
LWPOLYLINE
5
101
100
AcDbEntity
8
0
100
AcDbPolyline
90
4
70
1
43
0.0
10
274.20000000000005
20
114.56699999999999
10
313.19999999999999
20
114.56699999999999
10
313.19999999999999
20
126.56700000000001
10
274.20000000000005
20
126.56700000000001
0
LWPOLYLINE
5
102
100
AcDbEntity
8
0
100
AcDbPolyline
90
4
70
1
43
0.0
10
216.84700000000007
20
126.503
10
230.846
20
126.503
10
230.846
20
112.50300000000001
10
216.84700000000007
20
112.50300000000001
0
LWPOLYLINE
5
103
100
AcDbEntity
8
0
100
AcDbPolyline
90
4
70
1
43
0.0
10
73.971900000000005
20
126.503
10
87.971100000000021
20
126.503
10
87.971100000000021
20
112.50300000000001
10
73.971900000000005
20
112.50300000000001
0
CIRCLE
5
104
100
AcDbEntity
8
0
100
AcDbCircle
10
30.809624271369991
20
115.72054920190681
30
0
40
1.0000000000000011
210
0
220
0
230
1
0
LWPOLYLINE
5
105
100
AcDbEntity
8
0
100
AcDbPolyline
90
4
70
1
43
0.0
10
315.28184968990621
20
94.577000000000012
10
315.28184968990621
20
106.82700000000003
10
303.53184968990621
20
106.82700000000003
10
303.53184968990621
20
94.577000000000012
0
LWPOLYLINE
5
106
100
AcDbEntity
8
0
100
AcDbPolyline
90
4
70
1
43
0.0
10
93.021900000000016
20
112.50300000000001
10
93.021900000000016
20
126.503
10
107.02100000000002
20
126.503
10
107.02100000000002
20
112.50300000000001
0
LINE
5
107
100
AcDbEntity
8
0
100
AcDbLine
10
325.39999999999998
20
136.077
30
0
11
325.39999999999998
21
126.56700000000001
31
0
0
LWPOLYLINE
5
108
100
AcDbEntity
8
0
100
AcDbPolyline
90
4
70
1
43
0.0
10
140.36000000000001
20
102.69100000000002
10
140.36000000000001
20
88.6905
10
126.35899999999999
20
88.6905
10
126.35899999999999
20
102.69100000000002
0
LWPOLYLINE
5
109
100
AcDbEntity
8
0
100
AcDbPolyline
90
4
70
1
43
0.0
10
102.25900000000001
20
88.6905
10
88.257900000000006
20
88.6905
10
88.257900000000006
20
102.69100000000002
10
102.25900000000001
20
102.69100000000002
0
LWPOLYLINE
5
110
100
AcDbEntity
8
0
100
AcDbPolyline
90
4
70
1
43
0.0
10
69.209400000000002
20
88.6905
10
69.209400000000002
20
102.69100000000002
10
83.20999999999998
20
102.69100000000002
10
83.20999999999998
20
88.6905
0
CIRCLE
5
111
100
AcDbEntity
8
0
100
AcDbCircle
10
259.39999420195818
20
16.799999624490738
30
0
40
0.99999999999999967
210
0
220
0
230
1
0
LWPOLYLINE
5
112
100
AcDbEntity
8
0
100
AcDbPolyline
90
4
70
1
43
0.0
10
249.89599999999999
20
126.503
10
249.89599999999999
20
112.50300000000001
10
235.89700000000008
20
112.50300000000001
10
235.89700000000008
20
126.503
0
LWPOLYLINE
5
113
100
AcDbEntity
8
0
100
AcDbPolyline
90
4
70
1
43
0.0
10
240.65899999999999
20
102.69100000000002
10
254.66000000000005
20
102.69100000000002
10
254.66000000000005
20
88.6905
10
240.65899999999999
20
88.6905
0
LWPOLYLINE
5
114
100
AcDbEntity
8
0
100
AcDbPolyline
90
4
70
1
43
0.0
10
54.921900000000008
20
126.503
10
68.921099999999996
20
126.503
10
68.921099999999996
20
112.50300000000001
10
54.921900000000008
20
112.50300000000001
0
LWPOLYLINE
5
115
100
AcDbEntity
8
0
100
AcDbPolyline
90
4
70
1
43
0.0
10
235.61000000000007
20
88.6905
10
221.60900000000001
20
88.6905
10
221.60900000000001
20
102.69100000000002
10
235.61000000000007
20
102.69100000000002
0
LWPOLYLINE
5
116
100
AcDbEntity
8
0
100
AcDbPolyline
90
4
70
1
43
0.0
10
64.159999999999997
20
102.69100000000002
10
64.159999999999997
20
88.6905
10
50.159400000000012
20
88.6905
10
50.159400000000012
20
102.69100000000002
0
LWPOLYLINE
5
117
100
AcDbEntity
8
0
100
AcDbPolyline
90
4
70
1
43
0.0
10
121.309
20
88.6905
10
107.30800000000002
20
88.6905
10
107.30800000000002
20
102.69100000000002
10
121.309
20
102.69100000000002
0
LWPOLYLINE
5
118
100
AcDbEntity
8
0
100
AcDbPolyline
90
4
70
1
43
0.0
10
183.50899999999999
20
102.69100000000002
10
197.51000000000002
20
102.69100000000002
10
197.51000000000002
20
88.6905
10
183.50899999999999
20
88.6905
0
LWPOLYLINE
5
119
100
AcDbEntity
8
0
100
AcDbPolyline
90
4
70
1
43
0.0
10
305.65000000000009
20
30.021473000000007
10
305.65000000000009
20
75.021473000000015
10
315.14999999999998
20
75.021473000000015
10
315.14999999999998
20
30.021473000000007
0
CIRCLE
5
120
100
AcDbEntity
8
0
100
AcDbCircle
10
57.026915630804424
20
19.825778479532982
30
0
40
0.999999999999997
210
0
220
0
230
1
0
CIRCLE
5
121
100
AcDbEntity
8
0
100
AcDbCircle
10
157.00000233948231
20
60.500000901520252
30
0
40
1.0000000000000071
210
0
220
0
230
1
0
LWPOLYLINE
5
122
100
AcDbEntity
8
0
100
AcDbPolyline
90
4
70
1
43
0.0
10
268.94600000000003
20
112.50300000000001
10
254.94500000000002
20
112.50300000000001
10
254.94500000000002
20
126.503
10
268.94600000000003
20
126.503
0
LWPOLYLINE
5
123
100
AcDbEntity
8
0
100
AcDbPolyline
90
4
70
1
43
0.0
10
197.79700000000005
20
112.50300000000001
10
197.79700000000005
20
126.503
10
211.79599999999999
20
126.503
10
211.79599999999999
20
112.50300000000001
0
LWPOLYLINE
5
124
100
AcDbEntity
8
0
100
AcDbPolyline
90
4
70
1
43
0.0
10
130.83500000000001
20
112.50300000000001
10
116.834
20
112.50300000000001
10
116.834
20
126.503
10
130.83500000000001
20
126.503
0
CIRCLE
5
125
100
AcDbEntity
8
0
100
AcDbCircle
10
300.56988522397234
20
73.407246667872712
30
0
40
0.99999999999999156
210
0
220
0
230
1
0
LWPOLYLINE
5
126
100
AcDbEntity
8
0
100
AcDbPolyline
90
4
70
1
43
0.0
10
159.41
20
102.69100000000002
10
159.41
20
88.6905
10
145.40899999999999
20
88.6905
10
145.40899999999999
20
102.69100000000002
0
LWPOLYLINE
5
127
100
AcDbEntity
8
0
100
AcDbPolyline
90
4
70
1
43
0.0
10
187.98500000000001
20
112.50300000000001
10
173.98400000000007
20
112.50300000000001
10
173.98400000000007
20
126.503
10
187.98500000000001
20
126.503
0
LWPOLYLINE
5
128
100
AcDbEntity
8
0
100
AcDbPolyline
90
4
70
1
43
0.0
10
31.109200000000001
20
88.6905
10
31.109200000000001
20
102.69100000000002
10
45.109999999999999
20
102.69100000000002
10
45.109999999999999
20
88.6905
0
LWPOLYLINE
5
129
100
AcDbEntity
8
0
100
AcDbPolyline
90
4
70
1
43
0.0
10
164.459
20
102.69100000000002
10
178.46000000000001
20
102.69100000000002
10
178.46000000000001
20
88.6905
10
164.459
20
88.6905
0
LWPOLYLINE
5
130
100
AcDbEntity
8
0
100
AcDbPolyline
90
4
70
1
43
0.0
10
116.54600000000002
20
50.590499999999999
10
102.547
20
50.590499999999999
10
102.547
20
64.591499999999996
10
116.54600000000002
20
64.591499999999996
0
LWPOLYLINE
5
131
100
AcDbEntity
8
0
100
AcDbPolyline
90
4
70
1
43
0.0
10
126.07100000000001
20
45.541499999999999
10
126.07100000000001
20
31.540600000000008
10
112.072
20
31.540600000000008
10
112.072
20
45.541499999999999
0
LWPOLYLINE
5
132
100
AcDbEntity
8
0
100
AcDbPolyline
90
4
70
1
43
0.0
10
252.56600000000003
20
45.541499999999999
10
266.565
20
45.541499999999999
10
266.565
20
31.540600000000008
10
252.56600000000003
20
31.540600000000008
0
LWPOLYLINE
5
133
100
AcDbEntity
8
0
100
AcDbPolyline
90
4
70
1
43
0.0
10
87.971100000000021
20
31.540600000000008
10
73.971900000000005
20
31.540600000000008
10
73.971900000000005
20
45.541499999999999
10
87.971100000000021
20
45.541499999999999
0
LWPOLYLINE
5
134
100
AcDbEntity
8
0
100
AcDbPolyline
90
4
70
1
43
0.0
10
19.203000000000007
20
50.590499999999999
10
19.203000000000007
20
64.591499999999996
10
33.202500000000001
20
64.591499999999996
10
33.202500000000001
20
50.590499999999999
0
LWPOLYLINE
5
135
100
AcDbEntity
8
0
100
AcDbPolyline
90
4
70
1
43
0.0
10
221.32100000000005
20
45.541499999999999
10
221.32100000000005
20
31.540600000000008
10
207.32200000000006
20
31.540600000000008
10
207.32200000000006
20
45.541499999999999
0
LWPOLYLINE
5
136
100
AcDbEntity
8
0
100
AcDbPolyline
90
4
70
1
43
0.0
10
173.69600000000003
20
50.590499999999999
10
159.697
20
50.590499999999999
10
159.697
20
64.591499999999996
10
173.69600000000003
20
64.591499999999996
0
LWPOLYLINE
5
137
100
AcDbEntity
8
0
100
AcDbPolyline
90
4
70
1
43
0.0
10
183.221
20
45.541499999999999
10
183.221
20
31.540600000000008
10
169.22200000000001
20
31.540600000000008
10
169.22200000000001
20
45.541499999999999
0
LWPOLYLINE
5
138
100
AcDbEntity
8
0
100
AcDbPolyline
90
4
70
1
43
0.0
10
107.02100000000002
20
45.541499999999999
10
107.02100000000002
20
31.540600000000008
10
93.021900000000016
20
31.540600000000008
10
93.021900000000016
20
45.541499999999999
0
LWPOLYLINE
5
139
100
AcDbEntity
8
0
100
AcDbPolyline
90
4
70
1
43
0.0
10
135.596
20
64.591499999999996
10
135.596
20
50.590499999999999
10
121.59700000000001
20
50.590499999999999
10
121.59700000000001
20
64.591499999999996
0
LWPOLYLINE
5
140
100
AcDbEntity
8
0
100
AcDbPolyline
90
4
70
1
43
0.0
10
59.396100000000004
20
50.590499999999999
10
45.396900000000002
20
50.590499999999999
10
45.396900000000002
20
64.591499999999996
10
59.396100000000004
20
64.591499999999996
0
LWPOLYLINE
5
141
100
AcDbEntity
8
0
100
AcDbPolyline
90
4
70
1
43
0.0
10
64.446899999999999
20
64.591499999999996
10
78.446100000000001
20
64.591499999999996
10
78.446100000000001
20
50.590499999999999
10
64.446899999999999
20
50.590499999999999
0
LWPOLYLINE
5
142
100
AcDbEntity
8
0
100
AcDbPolyline
90
4
70
1
43
0.0
10
97.496100000000013
20
64.591499999999996
10
97.496100000000013
20
50.590499999999999
10
83.496900000000025
20
50.590499999999999
10
83.496900000000025
20
64.591499999999996
0
LWPOLYLINE
5
143
100
AcDbEntity
8
0
100
AcDbPolyline
90
4
70
1
43
0.0
10
154.93400000000003
20
126.503
10
168.935
20
126.503
10
168.935
20
112.50300000000001
10
154.93400000000003
20
112.50300000000001
0
LWPOLYLINE
5
144
100
AcDbEntity
8
0
100
AcDbPolyline
90
4
70
1
43
0.0
10
164.17100000000005
20
31.540600000000008
10
150.172
20
31.540600000000008
10
150.172
20
45.541499999999999
10
164.17100000000005
20
45.541499999999999
0
LWPOLYLINE
5
145
100
AcDbEntity
8
0
100
AcDbPolyline
90
4
70
1
43
0.0
10
154.64600000000004
20
50.590499999999999
10
140.64700000000002
20
50.590499999999999
10
140.64700000000002
20
64.591499999999996
10
154.64600000000004
20
64.591499999999996
0
LWPOLYLINE
5
146
100
AcDbEntity
8
0
100
AcDbPolyline
90
4
70
1
43
0.0
10
135.88400000000001
20
83.641500000000008
10
149.88499999999999
20
83.641500000000008
10
149.88499999999999
20
69.640500000000003
10
135.88400000000001
20
69.640500000000003
0
LWPOLYLINE
5
147
100
AcDbEntity
8
0
100
AcDbPolyline
90
4
70
1
43
0.0
10
30.821200000000001
20
83.641500000000008
10
30.821200000000001
20
69.640500000000003
10
16.8217
20
69.640500000000003
10
16.8217
20
83.641500000000008
0
LWPOLYLINE
5
148
100
AcDbEntity
8
0
100
AcDbPolyline
90
4
70
1
43
0.0
10
54.634999999999998
20
83.641500000000008
10
54.634999999999998
20
69.640500000000003
10
40.634399999999999
20
69.640500000000003
10
40.634399999999999
20
83.641500000000008
0
LWPOLYLINE
5
149
100
AcDbEntity
8
0
100
AcDbPolyline
90
4
70
1
43
0.0
10
92.735000000000014
20
83.641500000000008
10
92.735000000000014
20
69.640500000000003
10
78.734399999999994
20
69.640500000000003
10
78.734399999999994
20
83.641500000000008
0
LWPOLYLINE
5
150
100
AcDbEntity
8
0
100
AcDbPolyline
90
4
70
1
43
0.0
10
235.89700000000008
20
50.590499999999999
10
235.89700000000008
20
64.591499999999996
10
249.89599999999999
20
64.591499999999996
10
249.89599999999999
20
50.590499999999999
0
LWPOLYLINE
5
151
100
AcDbEntity
8
0
100
AcDbPolyline
90
4
70
1
43
0.0
10
193.03400000000008
20
83.641500000000008
10
207.03500000000005
20
83.641500000000008
10
207.03500000000005
20
69.640500000000003
10
193.03400000000008
20
69.640500000000003
0
LWPOLYLINE
5
152
100
AcDbEntity
8
0
100
AcDbPolyline
90
4
70
1
43
0.0
10
212.084
20
83.641500000000008
10
226.08500000000006
20
83.641500000000008
10
226.08500000000006
20
69.640500000000003
10
212.084
20
69.640500000000003
0
LWPOLYLINE
5
153
100
AcDbEntity
8
0
100
AcDbPolyline
90
4
70
1
43
0.0
10
130.83500000000001
20
83.641500000000008
10
130.83500000000001
20
69.640500000000003
10
116.834
20
69.640500000000003
10
116.834
20
83.641500000000008
0
LWPOLYLINE
5
154
100
AcDbEntity
8
0
100
AcDbPolyline
90
4
70
1
43
0.0
10
154.93400000000003
20
69.640500000000003
10
154.93400000000003
20
83.641500000000008
10
168.935
20
83.641500000000008
10
168.935
20
69.640500000000003
0
LWPOLYLINE
5
155
100
AcDbEntity
8
0
100
AcDbPolyline
90
4
70
1
43
0.0
10
59.684400000000004
20
69.640500000000003
10
59.684400000000004
20
83.641500000000008
10
73.685000000000002
20
83.641500000000008
10
73.685000000000002
20
69.640500000000003
0
LWPOLYLINE
5
156
100
AcDbEntity
8
0
100
AcDbPolyline
90
44
70
1
43
0.0
10
262.68400000000003
20
102.14
10
262.68400000000003
20
101.22100000000003
10
260.959
20
101.22100000000003
10
260.959
20
97.991100000000003
10
260.13499999999999
20
97.991100000000003
10
260.13499999999999
20
95.190700000000007
10
260.959
20
95.190700000000007
10
260.959
20
88.9208
10
262.68400000000003
20
88.9208
10
262.68400000000003
20
87.940799999999996
10
265.98500000000001
20
87.940799999999996
10
265.98500000000001
20
88.9208
10
267.71000000000004
20
88.9208
10
267.71000000000004
20
93.390900000000002
10
269.23400000000004
20
93.390900000000002
10
269.23400000000004
20
88.6905
10
283.23500000000001
20
88.6905
10
283.23500000000001
20
93.390900000000002
10
284.75900000000001
20
93.390900000000002
10
284.75900000000001
20
88.9208
10
286.48400000000009
20
88.9208
10
286.48400000000009
20
87.940799999999996
10
289.78500000000008
20
87.940799999999996
10
289.78500000000008
20
88.9208
10
291.50900000000001
20
88.9208
10
291.50900000000001
20
95.190700000000007
10
292.33400000000006
20
95.190700000000007
10
292.33400000000006
20
97.991100000000003
10
291.50900000000001
20
97.991100000000003
10
291.50900000000001
20
101.22100000000003
10
289.78500000000008
20
101.22100000000003
10
289.78500000000008
20
102.14
10
286.48400000000009
20
102.14
10
286.48400000000009
20
101.22100000000003
10
284.75900000000001
20
101.22100000000003
10
284.75900000000001
20
97.991100000000003
10
283.23500000000001
20
97.991100000000003
10
283.23500000000001
20
102.69100000000002
10
269.23400000000004
20
102.69100000000002
10
269.23400000000004
20
97.991100000000003
10
267.71000000000004
20
97.991100000000003
10
267.71000000000004
20
101.22100000000003
10
265.98500000000001
20
101.22100000000003
10
265.98500000000001
20
102.14
0
LWPOLYLINE
5
157
100
AcDbEntity
8
0
100
AcDbPolyline
90
4
70
1
43
0.0
10
192.74600000000004
20
50.590499999999999
10
178.74700000000001
20
50.590499999999999
10
178.74700000000001
20
64.591499999999996
10
192.74600000000004
20
64.591499999999996
0
LWPOLYLINE
5
158
100
AcDbEntity
8
0
100
AcDbPolyline
90
4
70
1
43
0.0
10
230.846
20
50.590499999999999
10
216.84700000000007
20
50.590499999999999
10
216.84700000000007
20
64.591499999999996
10
230.846
20
64.591499999999996
0
LWPOLYLINE
5
159
100
AcDbEntity
8
0
100
AcDbPolyline
90
4
70
1
43
0.0
10
173.98400000000007
20
83.641500000000008
10
187.98500000000001
20
83.641500000000008
10
187.98500000000001
20
69.640500000000003
10
173.98400000000007
20
69.640500000000003
0
LWPOLYLINE
5
160
100
AcDbEntity
8
0
100
AcDbPolyline
90
4
70
1
43
0.0
10
97.784400000000034
20
83.641500000000008
10
111.785
20
83.641500000000008
10
111.785
20
69.640500000000003
10
97.784400000000034
20
69.640500000000003
0
LWPOLYLINE
5
161
100
AcDbEntity
8
0
100
AcDbPolyline
90
4
70
1
43
0.0
10
211.79599999999999
20
50.590499999999999
10
197.79700000000005
20
50.590499999999999
10
197.79700000000005
20
64.591499999999996
10
211.79599999999999
20
64.591499999999996
0
LWPOLYLINE
5
162
100
AcDbEntity
8
0
100
AcDbPolyline
90
4
70
1
43
0.0
10
250.18400000000003
20
83.641500000000008
10
264.185
20
83.641500000000008
10
264.185
20
69.640500000000003
10
250.18400000000003
20
69.640500000000003
0
LWPOLYLINE
5
163
100
AcDbEntity
8
0
100
AcDbPolyline
90
4
70
1
43
0.0
10
12.059200000000001
20
88.6905
10
12.059200000000001
20
102.69100000000002
10
26.060099999999998
20
102.69100000000002
10
26.060099999999998
20
88.6905
0
LWPOLYLINE
5
164
100
AcDbEntity
8
0
100
AcDbPolyline
90
4
70
1
43
0.0
10
35.871899999999997
20
126.503
10
49.871100000000013
20
126.503
10
49.871100000000013
20
112.50300000000001
10
35.871899999999997
20
112.50300000000001
0
LWPOLYLINE
5
165
100
AcDbEntity
8
0
100
AcDbPolyline
90
4
70
1
43
0.0
10
12.059200000000001
20
126.503
10
26.060099999999998
20
126.503
10
26.060099999999998
20
112.50300000000001
10
12.059200000000001
20
112.50300000000001
0
LWPOLYLINE
5
166
100
AcDbEntity
8
0
100
AcDbPolyline
90
4
70
1
43
0.0
10
273.99700000000001
20
69.640500000000003
10
273.99700000000001
20
83.641500000000008
10
287.99599999999998
20
83.641500000000008
10
287.99599999999998
20
69.640500000000003
0
LWPOLYLINE
5
167
100
AcDbEntity
8
0
100
AcDbPolyline
90
4
70
1
43
0.0
10
245.13499999999999
20
69.640500000000003
10
231.13399999999999
20
69.640500000000003
10
231.13399999999999
20
83.641500000000008
10
245.13499999999999
20
83.641500000000008
0
LWPOLYLINE
5
168
100
AcDbEntity
8
0
100
AcDbPolyline
90
44
70
1
43
0.0
10
93.877300000000034
20
17.191000000000006
10
133.50299999999999
20
17.191000000000006
10
133.50299999999999
20
12.491900000000001
10
147.50199999992671
20
12.491900000005227
10
147.50200000000001
20
17.191000000000006
10
187.12799999999999
20
17.191000000000006
10
187.12799999999999
20
12.720700000000004
10
188.852
20
12.720700000000004
10
188.852
20
11.7423
10
192.15200000000007
20
11.7423
10
192.15200000000007
20
12.720700000000004
10
193.87700000000001
20
12.720700000000004
10
193.87700000000001
20
18.9907
10
194.70300000000006
20
18.9907
10
194.70300000000006
20
21.790900000000001
10
193.87700000000001
20
21.790900000000001
10
193.87700000000001
20
25.021000000000004
10
192.15200000000007
20
25.021000000000004
10
192.15200000000007
20
25.940200000000004
10
188.852
20
25.940200000000004
10
188.852
20
25.021000000000004
10
187.12799999999999
20
25.021000000000004
10
187.12799999999999
20
21.790900000000001
10
147.50200000000001
20
21.790900000000001
10
147.50200000000001
20
26.491399999999999
10
133.50299999999999
20
26.491399999999999
10
133.50299999999999
20
21.790900000000001
10
93.877300000000034
20
21.790900000000001
10
93.877300000000034
20
25.021000000000004
10
92.152299999999997
20
25.021000000000004
10
92.152299999999997
20
25.940200000000004
10
88.853100000000026
20
25.940200000000004
10
88.853100000000026
20
25.021000000000004
10
87.128
20
25.021000000000004
10
87.128
20
21.790900000000001
10
86.302500000000023
20
21.790900000000001
10
86.302500000000023
20
18.9907
10
87.128
20
18.9907
10
87.128
20
12.720700000000004
10
88.853100000000026
20
12.720700000000004
10
88.853100000000026
20
11.7423
10
92.152299999999997
20
11.7423
10
92.152299999999997
20
12.720700000000004
10
93.877300000000034
20
12.720700000000004
0
LWPOLYLINE
5
169
100
AcDbEntity
8
0
100
AcDbPolyline
90
44
70
1
43
0.0
10
22.440000000000001
20
36.240900000000011
10
23.965499999999999
20
36.240900000000011
10
23.965499999999999
20
31.540600000000008
10
37.9649
20
31.540600000000008
10
37.9649
20
36.240900000000011
10
39.490299999999998
20
36.240900000000011
10
39.490299999999998
20
31.770700000000005
10
41.215699999999998
20
31.770700000000005
10
41.215699999999998
20
30.790900000000008
10
44.516300000000008
20
30.790900000000008
10
44.516300000000008
20
31.770700000000005
10
46.240000000000016
20
31.770700000000005
10
46.240000000000016
20
38.040700000000001
10
47.0655
20
38.040700000000001
10
47.0655
20
40.841099999999997
10
46.240000000000016
20
40.841099999999997
10
46.240000000000016
20
44.071100000000001
10
44.516300000000008
20
44.071100000000001
10
44.516300000000008
20
44.990099999999998
10
41.215699999999998
20
44.990099999999998
10
41.215699999999998
20
44.071100000000001
10
39.490299999999998
20
44.071100000000001
10
39.490299999999998
20
40.841099999999997
10
37.9649
20
40.841099999999997
10
37.9649
20
45.541499999999999
10
23.965499999999999
20
45.541499999999999
10
23.965499999999999
20
40.841099999999997
10
22.440000000000001
20
40.841099999999997
10
22.440000000000001
20
44.071100000000001
10
20.716100000000001
20
44.071100000000001
10
20.716100000000001
20
44.990099999999998
10
17.415700000000001
20
44.990099999999998
10
17.415700000000001
20
44.071100000000001
10
15.690400000000002
20
44.071100000000001
10
15.690400000000002
20
40.841099999999997
10
14.8649
20
40.841099999999997
10
14.8649
20
38.040700000000001
10
15.690400000000002
20
38.040700000000001
10
15.690400000000002
20
31.770700000000005
10
17.415700000000001
20
31.770700000000005
10
17.415700000000001
20
30.790900000000008
10
20.716100000000001
20
30.790900000000008
10
20.716100000000001
20
31.770700000000005
10
22.440000000000001
20
31.770700000000005
0
LWPOLYLINE
5
170
100
AcDbEntity
8
0
100
AcDbPolyline
90
4
70
1
43
0.0
10
302.572
20
7.728060000000001
10
302.572
20
21.727500000000006
10
316.57100000000008
20
21.727500000000006
10
316.57100000000008
20
7.728060000000001
0
LWPOLYLINE
5
171
100
AcDbEntity
8
0
100
AcDbPolyline
90
4
70
1
43
0.0
10
254.66000000000005
20
26.491399999999999
10
254.66000000000005
20
12.491900000000001
10
240.65899999999999
20
12.491900000000001
10
240.65899999999999
20
26.491399999999999
0
LWPOLYLINE
5
172
100
AcDbEntity
8
0
100
AcDbPolyline
90
4
70
1
43
0.0
10
325.39999999999998
20
136.077
10
325.39999999999998
20
0.27147299999999319
10
0.095084599999992747
20
0.27147300000000002
10
0.095084600000000033
20
136.077
0
LWPOLYLINE
5
173
100
AcDbEntity
8
0
100
AcDbPolyline
90
4
70
1
43
0.0
10
202.55900000000003
20
88.6905
10
202.55900000000003
20
102.69100000000002
10
216.56000000000006
20
102.69100000000002
10
216.56000000000006
20
88.6905
0
LWPOLYLINE
5
174
100
AcDbEntity
8
0
100
AcDbPolyline
90
4
70
1
43
0.0
10
297.52100000000002
20
7.728060000000001
10
283.52199999999999
20
7.728060000000001
10
283.52199999999999
20
21.727500000000006
10
297.52100000000002
20
21.727500000000006
0
LWPOLYLINE
5
175
100
AcDbEntity
8
0
100
AcDbPolyline
90
4
70
1
43
0.0
10
278.471
20
21.727500000000006
10
278.471
20
7.728060000000001
10
264.47199999999998
20
7.728060000000001
10
264.47199999999998
20
21.727500000000006
0
LWPOLYLINE
5
176
100
AcDbEntity
8
0
100
AcDbPolyline
90
44
70
1
43
0.0
10
263.60200000000009
20
49.840800000000002
10
263.60200000000009
20
50.820800000000013
10
265.327
20
50.820800000000013
10
265.327
20
55.290900000000001
10
266.85300000000001
20
55.290900000000001
10
266.85300000000001
20
50.590499999999999
10
280.85200000000003
20
50.590499999999999
10
280.85200000000003
20
55.290900000000001
10
282.37799999999999
20
55.290900000000001
10
282.37799999999999
20
50.820800000000013
10
284.10200000000009
20
50.820800000000013
10
284.10200000000009
20
49.840800000000002
10
287.4020000000001
20
49.840800000000002
10
287.4020000000001
20
50.820800000000013
10
289.12700000000001
20
50.820800000000013
10
289.12700000000001
20
57.090700000000012
10
289.95299999999997
20
57.090700000000012
10
289.95299999999997
20
59.891100000000002
10
289.12700000000001
20
59.891100000000002
10
289.12700000000001
20
63.121100000000013
10
287.4020000000001
20
63.121100000000013
10
287.4020000000001
20
64.040099999999995
10
284.10200000000009
20
64.040099999999995
10
284.10200000000009
20
63.121100000000013
10
282.37799999999999
20
63.121100000000013
10
282.37799999999999
20
59.891100000000002
10
280.85200000000003
20
59.891100000000002
10
280.85200000000003
20
64.591499999999996
10
266.85300000000001
20
64.591499999999996
10
266.85300000000001
20
59.891100000000002
10
265.327
20
59.891100000000002
10
265.327
20
63.121100000000013
10
263.60200000000009
20
63.121100000000013
10
263.60200000000009
20
64.040099999999995
10
260.303
20
64.040099999999995
10
260.303
20
63.121100000000013
10
258.57799999999997
20
63.121100000000013
10
258.57799999999997
20
59.891100000000002
10
257.75300000000004
20
59.891100000000002
10
257.75300000000004
20
57.090700000000012
10
258.57799999999997
20
57.090700000000012
10
258.57799999999997
20
50.820800000000013
10
260.303
20
50.820800000000013
10
260.303
20
49.840800000000002
0
LWPOLYLINE
5
177
100
AcDbEntity
8
0
100
AcDbPolyline
90
4
70
1
43
0.0
10
235.61000000000007
20
12.491900000000001
10
221.60900000000001
20
12.491900000000001
10
221.60900000000001
20
26.491399999999999
10
235.61000000000007
20
26.491399999999999
0
LWPOLYLINE
5
178
100
AcDbEntity
8
0
100
AcDbPolyline
90
4
70
1
43
0.0
10
28.440000000000008
20
12.491900000000001
10
14.4405
20
12.491900000000001
10
14.4405
20
26.491399999999999
10
28.440000000000008
20
26.491399999999999
0
LWPOLYLINE
5
179
100
AcDbEntity
8
0
100
AcDbPolyline
90
4
70
1
43
0.0
10
202.55900000000003
20
12.491900000000001
10
202.55900000000003
20
26.491399999999999
10
216.56000000000006
20
26.491399999999999
10
216.56000000000006
20
12.491900000000001
0
LWPOLYLINE
5
180
100
AcDbEntity
8
0
100
AcDbPolyline
90
4
70
1
43
0.0
10
283.52199999999999
20
26.778100000000002
10
283.52199999999999
20
40.777600000000007
10
297.52100000000002
20
40.777600000000007
10
297.52100000000002
20
26.778100000000002
0
LWPOLYLINE
5
181
100
AcDbEntity
8
0
100
AcDbPolyline
90
4
70
1
43
0.0
10
188.27200000000002
20
31.540600000000008
10
188.27200000000002
20
45.541499999999999
10
202.27100000000002
20
45.541499999999999
10
202.27100000000002
20
31.540600000000008
0
LWPOLYLINE
5
182
100
AcDbEntity
8
0
100
AcDbPolyline
90
4
70
1
43
0.0
10
226.37200000000007
20
31.540600000000008
10
226.37200000000007
20
45.541499999999999
10
240.37100000000004
20
45.541499999999999
10
240.37100000000004
20
31.540600000000008
0
LWPOLYLINE
5
183
100
AcDbEntity
8
0
100
AcDbPolyline
90
4
70
1
43
0.0
10
52.252400000000002
20
26.491399999999999
10
52.252400000000002
20
12.491900000000001
10
38.253100000000003
20
12.491900000000001
10
38.253100000000003
20
26.491399999999999
0
LWPOLYLINE
5
184
100
AcDbEntity
8
0
100
AcDbPolyline
90
4
70
1
43
0.0
10
62.065600000000003
20
12.491900000000001
10
62.065600000000003
20
26.491399999999999
10
76.06489999999998
20
26.491399999999999
10
76.06489999999998
20
12.491900000000001
0
LWPOLYLINE
5
185
100
AcDbEntity
8
0
100
AcDbPolyline
90
4
70
1
43
0.0
10
145.12100000000001
20
31.540600000000008
10
131.12200000000001
20
31.540600000000008
10
131.12200000000001
20
45.541499999999999
10
145.12100000000001
20
45.541499999999999
0
LWPOLYLINE
5
186
100
AcDbEntity
8
0
100
AcDbPolyline
90
4
70
1
43
0.0
10
68.921099999999996
20
31.540600000000008
10
54.921900000000008
20
31.540600000000008
10
54.921900000000008
20
45.541499999999999
10
68.921099999999996
20
45.541499999999999
0
ENDSEC
0
SECTION
2
OBJECTS
0
DICTIONARY
5
C
100
AcDbDictionary
3
ACAD_GROUP
350
D
3
ACAD_MLINESTYLE
350
17
0
DICTIONARY
5
D
100
AcDbDictionary
0
DICTIONARY
5
1A
330
C
100
AcDbDictionary
0
DICTIONARY
5
17
100
AcDbDictionary
0
ENDSEC
0
EOF
